<svg id="_1" data-name="1" xmlns="http://www.w3.org/2000/svg" viewBox="0 0 1000 600"><defs><style>.cls-1{fill:#aa9e2d;}.cls-2{fill:#8e3f2f;}.cls-3{fill:#bcb239;}.cls-4{fill:#cebf3c;}.cls-5{fill:#afa635;}.cls-6{fill:#c1bd3a;}.cls-7{fill:#d1ca3f;}.cls-8{fill:#bcaf3f;}.cls-9{fill:#e2d649;}.cls-10{fill:#a39d2b;}.cls-11{fill:#63293c;}.cls-12{fill:#77374e;}.cls-13{fill:#843a26;}.cls-14{fill:#ea3d6f;}.cls-15{fill:#9b3b3b;}.cls-16{fill:#842c2c;}.cls-17{fill:#7a2b2b;}.cls-18{fill:#681a1a;}.cls-19{fill:#d8215e;}.cls-20{fill:#d32a62;}.cls-21{fill:#59343e;}.cls-22{fill:#42232c;}.cls-23{fill:#fcefdb;}.cls-24{fill:#ffbb83;}.cls-25{fill:#eadcbe;}.cls-26{fill:#c62259;}.cls-27{fill:#ff9d66;}.cls-28{fill:#efdbc2;}.cls-29{fill:#ed7656;}.cls-30{fill:#f9c138;}.cls-31{fill:#ef9e29;}.cls-32{fill:#604748;}.cls-33{fill:#422931;}.cls-34{fill:#ffefdc;}</style></defs><title>copyImg</title><ellipse class="cls-1" cx="269.09" cy="194.37" rx="59.97" ry="70.1" transform="translate(11.02 403.15) rotate(-74.81)"/><ellipse class="cls-1" cx="193.9" cy="193.99" rx="59.97" ry="70.1" transform="translate(-44.11 330.3) rotate(-74.81)"/><path class="cls-2" d="M243.69,247.62c23.32-12.45,29.47-33.49,29.72-34.37l-4-.85a58.52,58.52,0,0,1-27.78,32Z"/><path class="cls-2" d="M241.3,263.31c-27.44-11-37-33.62-37.35-34.58l4.3-1.41c.09.22,9.29,21.93,34.9,32.22Z"/><ellipse class="cls-3" cx="188.5" cy="186.11" rx="51.8" ry="60.55" transform="matrix(0.26, -0.97, 0.97, 0.26, -40.49, 319.28)"/><polygon class="cls-2" points="243.49 197.44 240.46 200.44 237.77 385.24 246.38 385.31 243.49 197.44"/><ellipse class="cls-1" cx="227.91" cy="153.01" rx="65.84" ry="77.08" transform="translate(-25.21 259.24) rotate(-56.64)"/><ellipse class="cls-3" cx="237.74" cy="142.97" rx="71.47" ry="83.54" transform="translate(37.49 334.96) rotate(-74.81)"/><path class="cls-4" d="M184.14,120.66c7.35,24.84,33,47,67,54.59,20.84,4.69,41.13,3.09,57.6-3.32.29-29.79-24-57.93-58.89-65.78C224.8,100.51,200.4,106.7,184.14,120.66Z"/><ellipse class="cls-5" cx="154.09" cy="381.55" rx="40.02" ry="46.79"/><ellipse class="cls-6" cx="102.7" cy="412.86" rx="56.12" ry="65.6"/><path class="cls-7" d="M137.62,361.56c-6.66,27.53-28.27,47.73-53.95,47.73-13.22,0-25.34-5.37-34.93-14.3,6.67-27.54,28.27-47.73,54-47.73C115.91,347.26,128,352.63,137.62,361.56Z"/><ellipse class="cls-6" cx="222.18" cy="409.32" rx="48.82" ry="58.75"/><path class="cls-7" d="M270.06,398a42.06,42.06,0,0,1-22.08,6.4c-23.73,0-43.49-20.39-47.89-47.4a42,42,0,0,1,22.09-6.41C245.91,350.57,265.67,371,270.06,398Z"/><path class="cls-5" d="M277.15,478.46c0-1,.13-2,.13-3,0-56.75-39.36-102.75-87.91-102.75s-87.91,46-87.91,102.75c0,1,.11,2,.13,3Z"/><path class="cls-7" d="M333.78,478.46a55.59,55.59,0,0,0,.6-7.8c0-25.84-17.92-46.79-40-46.79s-40,20.95-40,46.79a54.13,54.13,0,0,0,.6,7.8Z"/><path class="cls-8" d="M189.37,372.72c31.4,0,58.87,19.3,74.42,48.24-16.85,11.7-48.89,14.72-84,6-20.72-5.18-39.08-13.63-53.06-23.54C142.72,384.46,164.86,372.72,189.37,372.72Z"/><path class="cls-8" d="M187.44,355.7a36.61,36.61,0,0,1-25.67,10.91c-13.93,0-26.18-8.33-33.35-20.95a36.58,36.58,0,0,1,25.67-10.9C168,334.76,180.27,343.08,187.44,355.7Z"/><path class="cls-9" d="M271.39,432.57a36.07,36.07,0,0,1,23-8.49c14.71,0,27.52,9.3,34.48,23.11a36,36,0,0,1-22.95,8.5C291.17,455.69,278.35,446.39,271.39,432.57Z"/><path class="cls-5" d="M366.17,478.45A21,21,0,0,1,360.24,464c0-12.5,11.45-22.63,25.57-22.63s25.56,10.13,25.56,22.63a21.07,21.07,0,0,1-5.93,14.5Z"/><path class="cls-7" d="M322.74,478.46a43.68,43.68,0,0,1-7.15-24.39c0-21,13.79-38.08,30.8-38.08s30.8,17.05,30.8,38.08A43.68,43.68,0,0,1,370,478.46Z"/><path class="cls-6" d="M345.36,453.79a48.05,48.05,0,0,0,24.07-24.93,45,45,0,0,1,.61,49.6h-47.3a43.37,43.37,0,0,1-7.08-22.54C324.2,459.14,334.89,458.7,345.36,453.79Z"/><path class="cls-1" d="M892.57,196c37.19-42.53,21.85-108.15-72.51-125.51C699.48,48.34,622.54,122.43,654.18,185.8c18.57,37.18,72.62,57.09,121.69,56.44C820.17,241.66,867.79,224.37,892.57,196Z"/><path class="cls-2" d="M784.61,272.32c30.48-28.77,36.25-79.06,36.48-81.19l-5.57-2.24c-.06.49-5.67,48.82-34.11,75.67Z"/><path class="cls-2" d="M782.78,249.7c-37-22.9-50-61.35-50.5-63l5.77-1.53c.13.38,12.65,37.33,47.18,58.7Z"/><polygon class="cls-2" points="785.94 176.67 781.24 180.98 781.29 410.83 789.4 411.57 785.94 176.67"/><path class="cls-3" d="M864.55,171.2c29-33.12,17-84.24-56.48-97.76-93.92-17.28-153.85,40.43-129.21,89.79,14.47,29,56.57,44.47,94.79,44C808.16,206.74,845.25,193.27,864.55,171.2Z"/><path class="cls-4" d="M854.52,109.87a73.49,73.49,0,0,0,7-4.08c-10.41-12.43-28.31-22.63-54.9-27.52-39.67-7.3-72.79-.2-95,14,12.83,10.31,29.32,18.47,46.37,23.23C789.78,124.42,828.75,123.13,854.52,109.87Z"/><ellipse class="cls-5" cx="796.1" cy="376.45" rx="45.68" ry="49.25"/><ellipse class="cls-6" cx="854.75" cy="409.41" rx="64.05" ry="69.05"/><path class="cls-7" d="M814.89,355.41c7.61,29,32.27,50.24,61.59,50.24a60.94,60.94,0,0,0,39.86-15c-7.61-29-32.27-50.24-61.59-50.24A60.94,60.94,0,0,0,814.89,355.41Z"/><ellipse class="cls-6" cx="718.39" cy="405.69" rx="55.72" ry="61.84"/><path class="cls-7" d="M663.73,393.75a51,51,0,0,0,25.21,6.74c27.09,0,49.64-21.47,54.65-49.9a51,51,0,0,0-25.2-6.75C691.3,343.84,668.75,365.31,663.73,393.75Z"/><path class="cls-5" d="M655.65,478.46c0-1.06-.15-2.08-.15-3.14,0-59.74,44.92-108.16,100.33-108.16s100.33,48.42,100.33,108.16c0,1.06-.12,2.08-.14,3.14Z"/><path class="cls-7" d="M591,478.46a54.13,54.13,0,0,1-.68-8.21c0-27.2,20.45-49.25,45.68-49.25s45.69,22.05,45.69,49.25a54.13,54.13,0,0,1-.68,8.21Z"/><path class="cls-8" d="M755.83,367.16c-35.83,0-67.19,20.31-84.94,50.78,19.23,12.32,55.8,15.49,95.83,6.27,23.65-5.45,44.61-14.35,60.56-24.78C809.08,379.52,783.8,367.16,755.83,367.16Z"/><path class="cls-8" d="M758,349.25a43.63,43.63,0,0,0,29.3,11.48c15.9,0,29.89-8.77,38.07-22.05a43.54,43.54,0,0,0-29.3-11.48C780.2,327.2,766.22,336,758,349.25Z"/><path class="cls-9" d="M662.21,430.16a43.19,43.19,0,0,0-26.2-8.94c-16.78,0-31.41,9.79-39.35,24.33a43.19,43.19,0,0,0,26.2,8.94C639.64,454.49,654.27,444.7,662.21,430.16Z"/><path class="cls-5" d="M554,478.45a21.31,21.31,0,0,0,6.77-15.25c0-13.16-13.07-23.83-29.18-23.83S502.45,450,502.45,463.2a21.35,21.35,0,0,0,6.77,15.26Z"/><path class="cls-7" d="M603.61,478.46a43.46,43.46,0,0,0,8.16-25.67c0-22.14-15.74-40.09-35.15-40.09s-35.15,17.95-35.15,40.09a43.53,43.53,0,0,0,8.15,25.67Z"/><path class="cls-6" d="M577.79,452.49c-13-5.6-22.75-15.46-27.47-26.23a44.34,44.34,0,0,0-.7,52.2h54a43.21,43.21,0,0,0,8.08-23.72C601.94,458.12,589.75,457.66,577.79,452.49Z"/><ellipse class="cls-5" cx="278.58" cy="412.48" rx="27.58" ry="31.61" transform="translate(-0.96 0.65) rotate(-0.13)"/><path class="cls-6" d="M278.26,433.63c-.1-24.47-18.48-44.23-41-44.13s-40.8,20-40.71,44.5,18.48,44.56,41.06,44.46S278.36,458.11,278.26,433.63Z"/><path class="cls-7" d="M262.68,399.05c-4.78,18.62-20.46,32.34-39.17,32.42A38.79,38.79,0,0,1,198,421.92c4.78-18.62,20.47-32.33,39.18-32.42A38.74,38.74,0,0,1,262.68,399.05Z"/><ellipse class="cls-6" cx="325.58" cy="431.03" rx="33.64" ry="39.69" transform="translate(-1.15 0.87) rotate(-0.15)"/><path class="cls-7" d="M358.55,423.22a29.48,29.48,0,0,1-15.21,4.4c-16.35.07-30-13.64-33.12-31.88a29.44,29.44,0,0,1,15.2-4.4C341.77,391.27,355.44,405,358.55,423.22Z"/><path class="cls-5" d="M363.64,478.46c0-.68.09.68.08,0-.15-38.34-27.39-72.2-60.85-72s-60.45,33.71-60.3,72c0,.68.08-.68.1,0Z"/><path class="cls-7" d="M402.67,478.46a52.9,52.9,0,0,0,.39-6.34c-.07-17.46-12.48-31.56-27.71-31.49S347.82,461,347.89,478.46c0,1.79.18-1.72.44,0Z"/><path class="cls-8" d="M302.87,406.41c21.64-.1,40.62,12.85,51.41,32.36-11.58,8-33.65,10.09-57.84,4.28-14.29-3.43-27-9.09-36.62-15.74C270.75,414.49,286,406.48,302.87,406.41Z"/><path class="cls-8" d="M301.5,394.92a25.53,25.53,0,0,1-17.66,7.45c-9.6,0-18.07-5.55-23-14.05a25.54,25.54,0,0,1,17.65-7.45C288.05,380.83,296.52,386.42,301.5,394.92Z"/><path class="cls-9" d="M359.56,447.67a25.15,25.15,0,0,1,15.79-5.81c10.14,0,19,6.2,23.83,15.51a25.14,25.14,0,0,1-15.8,5.81C373.25,463.23,364.39,457,359.56,447.67Z"/><ellipse class="cls-5" cx="411.78" cy="399.23" rx="33.15" ry="37.98" transform="matrix(1, 0, 0, 1, -0.93, 0.96)"/><path class="cls-6" d="M411.4,424.65c-.12-29.41-22.21-53.15-49.34-53s-49,24.06-48.92,53.47,22.21,53.49,49.34,53.37S411.52,454.06,411.4,424.65Z"/><path class="cls-7" d="M392.68,383.09c-5.75,22.38-24.6,38.86-47.08,39A46.57,46.57,0,0,1,315,410.58c5.74-22.38,24.59-38.86,47.08-39A46.52,46.52,0,0,1,392.68,383.09Z"/><ellipse class="cls-6" cx="468.26" cy="421.53" rx="40.43" ry="47.7" transform="translate(-1.12 1.25) rotate(-0.15)"/><path class="cls-7" d="M507.88,412.14a35.37,35.37,0,0,1-18.26,5.28c-19.66.09-36.09-16.39-39.82-38.31a35.43,35.43,0,0,1,18.27-5.28C487.73,373.74,504.16,390.22,507.88,412.14Z"/><path class="cls-5" d="M514,478.46c0-.82.1.81.1,0-.18-46.08-32.93-86.71-73.13-86.53s-72.66,40.45-72.47,86.53c0,.81.09-.82.11,0Z"/><path class="cls-7" d="M560.91,478.46a62.76,62.76,0,0,0,.47-7.56c-.08-21-15-37.92-33.3-37.83s-33.08,17.15-33,38.13a57.83,57.83,0,0,0,.52,7.26Z"/><path class="cls-8" d="M441,391.93c26-.12,48.81,15.45,61.78,38.89-13.91,9.56-40.44,12.13-69.51,5.15-17.18-4.13-32.41-10.92-44-18.91C402.38,401.64,420.68,392,441,391.93Z"/><path class="cls-8" d="M439.32,378.13a30.66,30.66,0,0,1-21.22,8.95c-11.54.05-21.71-6.67-27.69-16.88a30.58,30.58,0,0,1,21.22-8.95C423.17,361.2,433.34,367.91,439.32,378.13Z"/><path class="cls-9" d="M509.1,441.53a30.19,30.19,0,0,1,19-7c12.18-.06,22.82,7.44,28.63,18.63a30.18,30.18,0,0,1-19,7C525.56,460.22,514.91,452.72,509.1,441.53Z"/><path class="cls-5" d="M194.81,478.46c-4.87-3.66-7.81-8.56-7.84-13.72-.07-11.69,14.88-21.22,33.38-21.28s33.55,9.37,33.61,21.06c0,5.16-2.87,10.25-7.7,13.94Z"/><path class="cls-7" d="M137.9,478.46a33.15,33.15,0,0,1-9.49-22.78C128.3,436,146.28,420,168.57,419.92s40.44,15.82,40.54,35.49a33.49,33.49,0,0,1-9.23,23Z"/><path class="cls-6" d="M167.42,455.29c14.86-5,26-13.83,31.41-23.42a32.72,32.72,0,0,1,1,46.59h-62a33.33,33.33,0,0,1-9.39-21C139.72,460.38,153.71,459.92,167.42,455.29Z"/><path class="cls-5" d="M530.9,478.46a19.25,19.25,0,0,1-6.74-14c-.07-11.69,12.76-21.21,28.64-21.27s28.82,9.39,28.88,21.08a19.44,19.44,0,0,1-6.6,14.24Z"/><path class="cls-7" d="M474.26,478.46a34,34,0,0,1-9.49-23.11c-.1-19.67,17.88-35.68,40.16-35.75s40.44,15.81,40.55,35.49a34.33,34.33,0,0,1-9.24,23.37Z"/><path class="cls-6" d="M503.78,455c14.86-5,26-13.82,31.41-23.42a33.29,33.29,0,0,1,10.29,23.55,34.33,34.33,0,0,1-9.24,23.37h-62a34.18,34.18,0,0,1-9.39-21.38C476.08,460.05,490.08,459.59,503.78,455Z"/><path class="cls-5" d="M708.15,478.46a20.54,20.54,0,0,1-5.84-14.06c-.07-11.69,11-21.2,24.74-21.25s24.91,9.4,25,21.09a20.79,20.79,0,0,1-5.69,14.22Z"/><path class="cls-7" d="M650.47,478.46A34,34,0,0,1,641,455.35c-.11-19.67,17.87-35.68,40.16-35.75s40.44,15.81,40.54,35.49a34.27,34.27,0,0,1-9.23,23.37Z"/><path class="cls-6" d="M680,455c14.86-5,26-13.82,31.4-23.42a33.29,33.29,0,0,1,10.29,23.55,34.27,34.27,0,0,1-9.23,23.37h-62a34.18,34.18,0,0,1-9.39-21.38C652.29,460.05,666.28,459.59,680,455Z"/><path class="cls-5" d="M606.83,478.46c-6-14.95-9.6-34.72-9.72-55.73-.26-47.63,17.7-86.3,40.11-86.37s40.78,38.47,41,86.1c.12,21-3.32,41-9.11,56Z"/><path class="cls-10" d="M606,368.17c6.51,23.33,22.78,39.91,41.78,39.85,10.67,0,20.42-5.31,28-14.06a175.4,175.4,0,0,1,2.47,28.5c.12,21-3.32,41-9.11,56H606.83c-6-14.95-9.6-34.72-9.72-55.73C597,402,600.33,383.05,606,368.17Z"/><path class="cls-7" d="M542.33,478.46c-6.9-23.34-11.14-53.7-11.32-86.5-.41-74.36,20.2-134.71,46-134.8s47.1,60.13,47.51,134.49c.18,32.8-3.74,63.43-10.38,86.81Z"/><path class="cls-6" d="M557.71,431.41c30.19-.1,54.35-58.35,53.95-130.09,0-.32,0-.62,0-.93,7.83,24,12.71,56,12.91,91.26.18,32.8-3.74,63.43-10.38,86.81H542.33c-5.16-17.44-8.83-39-10.43-62.25C539.62,425.93,548.41,431.44,557.71,431.41Z"/><path class="cls-5" d="M797.3,478.46a20.71,20.71,0,0,1-5.88-14.15c-.07-11.78,11.09-21.36,24.91-21.4s25.08,9.46,25.15,21.23a21,21,0,0,1-5.73,14.32Z"/><path class="cls-7" d="M739.17,478.46a34.24,34.24,0,0,1-9.55-23.27c-.11-19.81,18-35.93,40.44-36s40.72,15.92,40.83,35.74a34.53,34.53,0,0,1-9.3,23.53Z"/><path class="cls-6" d="M768.9,454.8c15-5.06,26.22-13.92,31.63-23.58a33.52,33.52,0,0,1,10.36,23.71,34.53,34.53,0,0,1-9.3,23.53H739.17a34.37,34.37,0,0,1-9.45-21.52C741,459.93,755.1,459.47,768.9,454.8Z"/><path class="cls-11" d="M441.66,238.91c-8.54-3.14-51.28-6-51.28-6-36.63,13.63-43.65,44-43.65,44l1.22,3.89c-23.51,37.8,5.8,91.5,5.8,91.5l28.69-.84,73.27-111.36S450.21,242.05,441.66,238.91Z"/><path class="cls-12" d="M420.51,235.52c-14.32-1.53-30.13-2.58-30.13-2.58-36.63,13.63-43.65,44-43.65,44l0,.15c12.23,0,25.69-10,39.28-17.13C401.47,251.82,422.68,246.51,420.51,235.52Z"/><path class="cls-13" d="M443.5,239c-1.46-10.33-5.78-23.91-2.38-28.35s23.69-9.74,28.93-4.58,1.29,26.48,1.29,26.48Z"/><path class="cls-14" d="M457.82,343.09c15.33.19,20.51-16.13,32.19-9.23-.75-17.47,8.25-60.78-19.51-76.68-11.35-6.5-16.86,20.78-13.88,40.11C458.93,312.25,457.82,343.09,457.82,343.09Z"/><path class="cls-11" d="M451.71,250.35c-5.11.73-8.48,9.62-8.48,9.62,25.75-2.13,46.51,34.08,22.07,61.58l1.42.9C493.32,297.24,492.7,244.56,451.71,250.35Z"/><path class="cls-15" d="M577,447.13l19-5a59.92,59.92,0,0,0-1.41-10.33c-6.58-29.22-21.19-36.16-21.19-36.16s-29.53,18.52-84,10.85-70.1,2.21-111.62-11.7c-18.32-6.13-51.42-26.85-62.34-25.24L344.28,479H583.55s11.84-12.15,12.4-32.71Z"/><polygon class="cls-16" points="347.87 478.98 583.55 478.98 587 474.79 556.19 478.06 492.82 474.68 422.78 477.45 363.22 470.99 347.87 478.98"/><polygon class="cls-16" points="586.11 461.63 568.71 465.29 530.04 462.29 586.11 461.63"/><path class="cls-17" d="M494,431.08l-7.89,4.34c22.49,3.94,91.93-6.32,91.93-6.32S550.45,432.26,494,431.08Z"/><path class="cls-17" d="M514,408.33a186.48,186.48,0,0,1-24.59-1.85c-54.43-7.67-70.1,2.21-111.62-11.7a125.14,125.14,0,0,1-11.85-4.85c15.26,14.92,32.36,25.09,58,28.35C452,443,480.32,468,500.43,479H520.8Z"/><polygon class="cls-16" points="407.76 452.25 377.08 448.14 369.41 435.54 371.6 458.19 376.53 451.15 407.76 453.34 428.04 451.7 407.76 452.25"/><path class="cls-16" d="M375.34,449.69c-8.76,22.28-18.61,30.14-34,29.22-18.26-1.09-85.47-83.28-47.85-104.83C335.46,350.06,370.23,420.83,375.34,449.69Z"/><path class="cls-18" d="M370.32,449.21c-6.34,19.75-14,26.71-26.47,25.9-14.8-1-71.86-73.79-42.17-92.89C334.77,360.94,365.23,423.65,370.32,449.21Z"/><path class="cls-14" d="M475.43,260.2c-7-8.28-41.92-12.6-62.74-6.84s-54.24,96.15-47.94,131l115.11-27.49C471.59,324.4,486.94,273.81,475.43,260.2Z"/><path class="cls-19" d="M477.53,321.83c-2.46,17.4-17.34,29.9-29.2,29.9-20.24,0-16-38.06-16-68.07,0-14.43-16.75-22.36-10.56-32.09a66.49,66.49,0,0,0-9.09,1.79c-20.82,5.75-54.24,96.15-47.94,131l115.11-27.49C477.21,346.42,477,334.15,477.53,321.83Z"/><path class="cls-20" d="M421.65,251.59c4.88,5,14.05,9.7,25.11,12.26,12.52,2.9,24.05,2.29,30.33-1a12.72,12.72,0,0,0-1.66-2.62C469.35,253,442.31,248.82,421.65,251.59Z"/><path class="cls-11" d="M417.35,247.69c-4.48-2.68-12.24,5.12-12.24,5.12,21.74,14.61,18.82,69.22-17.53,90.4l.73,2C425,327.87,450.59,267.6,417.35,247.69Z"/><path class="cls-21" d="M519.54,369.24c6,7.67,6.3,108,6.3,108l-2.23.72-40-72.28-50.37-48.53S505.78,351.73,519.54,369.24Z"/><path class="cls-22" d="M511.42,431.39c-3.35-27.36,0-50.29,7.57-51.21a4.89,4.89,0,0,1,3.26.95c-.74-6.18-1.64-10.52-2.71-11.89-13.76-17.51-86.3-12.06-86.3-12.06l50.37,48.53,40,72.28,2.23-.72v-.72C519.84,470.05,514,452.51,511.42,431.39Z"/><path class="cls-21" d="M476.8,374.44c-6.58-4.11-45.48-19-56.16-19.58-31.89-1.64-59.58,9.42-55.5,34.72,0,0,29.47,16.37,63.72,15.41,0,0,59.63,62.62,94.42,73.85l1-.84S483.37,378.55,476.8,374.44Z"/><path class="cls-22" d="M489.6,443.57c-18.88-28.42-26.72-56-17.51-61.63,2.44-1.49,5.83-1.28,9.85.35-2.33-4.37-4.14-7.22-5.14-7.85-6.58-4.11-45.48-19-56.16-19.58-31.89-1.64-59.58,9.42-55.5,34.72,0,0,29.47,16.37,63.72,15.41,0,0,54.94,57.68,90.12,72.23C509.7,469.77,499.15,457.94,489.6,443.57Z"/><polygon class="cls-23" points="488.03 353.26 419 353.26 456.07 373.9 525.11 373.9 488.03 353.26"/><path class="cls-24" d="M438.59,342.7c10.25-1.08,19.58-1.74,23,1.21s.13,19.12-6.71,15.2c-7.26-4.17-6.9,1.06-17.59-.88C436.14,358,435.68,343,438.59,342.7Z"/><path class="cls-24" d="M451.48,356.92c8.24,4.37,8.14,9.36,9.87,9.66s3.46-1.62,3.16-2.64-5.09-9.87-8.58-10.49C453.8,353.08,451.48,356.92,451.48,356.92Z"/><path class="cls-24" d="M455,352.51c8.7,3.38,9.18,8.35,10.93,8.45s3.25-2,2.82-3-6.2-9.22-9.74-9.42C456.89,348.42,455,352.51,455,352.51Z"/><path class="cls-24" d="M455.86,348.21c9.27,1.27,10.92,6,12.65,5.71s2.67-2.74,2-3.59-8.23-7.57-11.73-6.94C456.69,343.77,455.86,348.21,455.86,348.21Z"/><polygon class="cls-23" points="567.3 305.59 493.33 305.59 456.25 373.9 530.22 373.9 567.3 305.59"/><polygon class="cls-25" points="570.96 305.59 496.99 305.59 459.92 373.9 533.88 373.9 570.96 305.59"/><path class="cls-26" d="M397,319.27c-.27-2.43-9.66-3.38-21-2.11s-20.26,4.25-20,6.68,9.66,3.37,21,2.11S397.28,321.7,397,319.27Z"/><path class="cls-27" d="M360.65,349.82c-5.76-29.35,9.31-56.19,18.62-59.48s30.14,9.59,29.59,17.81-7.95,16.16-7.95,16.16Z"/><path class="cls-24" d="M441.1,344.09c-18.93-10.53-41.28-21.86-50.32-21.7s-24.1,2.62-26.51,16.31-1.52,22.52,15.88,26.46,63.62-6.63,63.62-6.63Z"/><path class="cls-27" d="M416.53,357.53c-23.52,0-35.26-11.83-35.26-21.53,0-5.16,5.45-9.8,14.08-13a19.93,19.93,0,0,0-4.57-.6c-9,.16-27.15,2.1-29.55,15.79s0,25.35,17.4,29.29,65.14-8.94,65.14-8.94S423.23,357.53,416.53,357.53Z"/><path class="cls-14" d="M406.1,321.35c-18.71-3.84-35-1.77-50,2,2.74-17.12,16.06-60,54.52-69.18,10.41-2.48,16.39,22.45,10.73,40.83C417,309.22,406.1,321.35,406.1,321.35Z"/><path class="cls-19" d="M387.6,276.39a94.63,94.63,0,0,1,7.68-16.16c-26.77,15.18-36.82,48.52-39.16,63.12a122,122,0,0,1,29.06-4C380.4,311.2,381.05,294.25,387.6,276.39Z"/><path class="cls-19" d="M402.17,320.68c1.31.22,2.6.4,3.93.67,0,0,10.89-12.13,15.27-26.35a46.74,46.74,0,0,0,1.33-5.58C417.43,303.74,409.64,315.15,402.17,320.68Z"/><path class="cls-28" d="M528.84,479H524s2.18-8.61,18.62-15.5C542.59,463.48,538.43,474,528.84,479Z"/><path class="cls-28" d="M523.63,479h-4.24s-1.19-9.27,10.65-16.69C530,462.29,530.2,473.63,523.63,479Z"/><path class="cls-24" d="M432.39,250.83c9.23,19.44,25.23,33.48,25.23,33.48.09-.27,9.33-13.71,12.31-27.39-4.54-2.65-9.79-5.25-16-6C447.07,250,439.51,250.64,432.39,250.83Z"/><path class="cls-27" d="M467.09,255.35c-8.13-2.92-20.34-4.66-32.32-4.61l-2.38.09a92.66,92.66,0,0,0,5.88,10.5,72.77,72.77,0,0,0,8.49,2.52,63.37,63.37,0,0,0,20.59,1.57,60.42,60.42,0,0,0,2.58-8.5C469,256.39,468.07,255.86,467.09,255.35Z"/><path class="cls-29" d="M450,224.15c-2.88,7.84-7.8,17-13.2,26.47,0,0,16.36,11.62,31.11,5.16l2.18-23Z"/><path class="cls-24" d="M445,218.58c-1,8.72,6.24,28.8,9.28,30.8s16.16.8,18.32-2-1.15-30.81-2.59-34.12C465.55,203,445.83,211.53,445,218.58Z"/><path class="cls-27" d="M463.69,219.48a40.67,40.67,0,0,1,7.38-1.47,27,27,0,0,0-1.06-4.72c-4.46-10.31-24.18-1.76-25,5.29-.35,3,.29,7.32,1.38,11.79C450.11,225.73,456.21,221.7,463.69,219.48Z"/><path class="cls-6" d="M362.35,444S346.51,459,345.8,479H335.55C340.75,454.09,362.35,444,362.35,444Z"/><path class="cls-6" d="M350.48,436.48A71.12,71.12,0,0,0,339.09,479h-9.81C332,448.08,350.48,436.48,350.48,436.48Z"/><path class="cls-6" d="M337.78,432.79S327.7,451.16,331.12,479h-9.31C322,444.91,337.78,432.79,337.78,432.79Z"/><path class="cls-6" d="M317.47,413.63S311.81,439.27,321,479h-9C305.06,430.46,317.47,413.63,317.47,413.63Z"/><path class="cls-6" d="M327.7,433.36s-8,17.89-2.3,45.62h-8.95C313.78,445.11,327.7,433.36,327.7,433.36Z"/><path class="cls-6" d="M262.34,442.54s20.37,16.07,27.4,36.44h9A76.36,76.36,0,0,0,262.34,442.54Z"/><path class="cls-6" d="M269.65,430.49s19.72,21.39,25.93,48.49h9C293.36,443.61,269.65,430.49,269.65,430.49Z"/><path class="cls-6" d="M281.15,422.09S299,447.18,302.89,479h9C303.73,437.49,281.15,422.09,281.15,422.09Z"/><path class="cls-6" d="M293.34,416.24A155.75,155.75,0,0,1,306.61,479h8.61C312.15,434.71,293.34,416.24,293.34,416.24Z"/><polygon class="cls-17" points="393.58 427.44 426.96 424.59 455.25 435.17 431.84 420.72 417.59 423.16 370.58 417.46 405.79 423.98 393.58 427.44"/><polygon class="cls-13" points="443.61 238.41 446.81 232.29 452.23 230.68 452.9 212.28 442.33 217.43 443.61 238.41"/><path class="cls-30" d="M439.82,221.16c8.49-7.49,19.07-11.74,31.61-12.95,0,0-3.42-13.82-8.19-15-3.24-.79-22.61,6.11-25.59,12.42C435.53,210.14,439.82,221.16,439.82,221.16Z"/><path class="cls-31" d="M451.12,208.68a17.84,17.84,0,0,1,.66-12.48c-6.08,2.45-12.52,6-14.13,9.46-2.12,4.48,2.17,15.5,2.17,15.5a49.67,49.67,0,0,1,13.09-8.28A19.74,19.74,0,0,1,451.12,208.68Z"/><path class="cls-14" d="M468.69,200.45c-11.39,5.47-18.78,10.43-25.08,17.68,13.14-6.31,27.64-9,28.92-5.24,0,0,11.42-7.25,13.62-10.9S475.44,197.22,468.69,200.45Z"/><path class="cls-24" d="M449.51,228.71c-1.5-2.75-3.77-4.41-5.06-3.71s-1.13,3.52.37,6.27,3.78,4.42,5.07,3.72S451,231.47,449.51,228.71Z"/><path class="cls-29" d="M448.76,229.38c-1-1.8-2.46-2.88-3.3-2.42s-.74,2.29.24,4.09,2.46,2.88,3.31,2.42S449.74,231.18,448.76,229.38Z"/><path class="cls-24" d="M449.35,231.24c-.71-1.09-1.79-1.7-2.42-1.35s-.58,1.51.13,2.6,1.78,1.7,2.41,1.35S450.05,232.33,449.35,231.24Z"/><polygon class="cls-16" points="342.95 389.12 359.59 399.5 376.08 405.3 359.29 403.17 354.55 402.86 342.95 389.12"/><polygon class="cls-17" points="442.93 469.56 461.56 467.58 500.94 471.55 488.42 467.12 461.25 465.75 442.93 469.56"/><path class="cls-32" d="M459.33,225.18c-.2-1.14-.95-1.94-1.68-1.78s-1.15,1.22-.94,2.36,1,2,1.68,1.79S459.54,226.33,459.33,225.18Z"/><path class="cls-13" d="M457.52,218.21l-4.16,2.67a.7.7,0,0,0-.25,1l.78,1.17a.73.73,0,0,0,1,.15l4.15-2.68a.69.69,0,0,0,.26-1l-.78-1.16A.72.72,0,0,0,457.52,218.21Z"/><path class="cls-32" d="M469.58,224c-.2-1.14-.95-1.94-1.68-1.78s-1.15,1.22-.94,2.36,1,1.95,1.68,1.79S469.79,225.16,469.58,224Z"/><path class="cls-13" d="M470.87,218.27l-4.63-.88a.77.77,0,0,0-.87.55l-.36,1.42a.67.67,0,0,0,.53.82l4.63.87a.77.77,0,0,0,.88-.55l.36-1.42A.66.66,0,0,0,470.87,218.27Z"/><path class="cls-29" d="M462.14,225c2.25,3.39,3.32,5.68,2.47,6.91a2.7,2.7,0,0,1-2.4.91v.08s2.78.65,3.74-.55S465.27,228.76,462.14,225Z"/><path class="cls-33" d="M467,236.37l-6.73,1s.4,5,3.59,5.89S467,236.37,467,236.37Z"/><path class="cls-34" d="M465.77,239a6.12,6.12,0,0,0,.45-1.77l-5.23.56a3.12,3.12,0,0,0,.57,1.56Z"/><polygon class="cls-21" points="62.05 476.72 465.41 486.37 921.34 476.72 62.05 476.72"/></svg>