<?xml version="1.0" encoding="utf-8"?>
<!-- Generator: Adobe Illustrator 23.0.5, SVG Export Plug-In . SVG Version: 6.00 Build 0)  -->
<svg version="1.1" xmlns="http://www.w3.org/2000/svg" xmlns:xlink="http://www.w3.org/1999/xlink" x="0px" y="0px"
	 viewBox="0 0 1200 758" style="enable-background:new 0 0 1200 758;" xml:space="preserve">
<style type="text/css">
	.st0{fill:#D29434;}
	.st1{fill:#FBBEBE;}
	.st2{fill:#D0CDE1;}
	.st3{opacity:0.1;enable-background:new    ;}
	.st4{fill:#A0616A;}
	.st5{fill:#3F3D56;}
	.st6{fill:#2F2E41;}
</style>
<g id="Layer_3">
	<path class="st0" d="M1200,0v758h-93.2c-89.6-39.1-183.9-66.6-280.5-81.8C651.4,648.4,486.7,662,351,688.9
		c-83,16.4-164.5,39.6-243.7,69.1H0V0H1200z"/>
</g>
<g id="f486ee6e-de1e-45cd-adbe-5aa880982aa3">
	<title>explore</title>
	<polygon class="st1" points="964.5,705.9 968.6,722.3 950.5,727.2 948.9,710 	"/>
	<polygon class="st1" points="898.7,726.4 898.7,742 880.6,745.3 877.3,737.1 883.9,723.1 	"/>
	<circle class="st1" cx="879" cy="384.4" r="22.2"/>
	<polygon class="st1" points="898.3,384.8 907.3,407 886,422.6 872.8,399.6 	"/>
	<path class="st2" d="M899.5,401.7l8.2-4.1l4.9,11.5c0,0,32.1,9.9,29.6,55.1s-8.2,62.5-8.2,62.5s14,29.6,5.8,32.9
		s-78.1,15.6-79.7,4.1s5.8-78.9,5.8-78.9s-2.5-48.5,18.1-58.4l-4.1-9L899.5,401.7z"/>
	<path class="st1" d="M854.3,561.2c0,0-18.9,19.7-8.2,24.7s17.3-22.2,17.3-22.2L854.3,561.2z"/>
	<path class="st2" d="M890.5,432.1c0,0,24.7,9.9,17.3,32.1s-27.1,90.4-27.1,90.4l-11.5,5.8l-3.3,9l-15.6-5.8l2.5-12.3
		c0,0,0.8-0.8,0.8-4.1s-3.3-4.1,0.8-4.1s4.1-4.1,4.1-4.1l14.8-92.1C873.2,446.9,873.2,431.3,890.5,432.1z"/>
	<polygon class="st3" points="909,468.7 883.5,555.8 872.8,566.5 879,555.4 	"/>
	<path class="st4" d="M248.6,442.4c0.9-3.5,4-6,7.7-6c5.2,0.1,11.5,1.3,10.1,7.5c-2.3,10.2-19.2,54.3-19.2,54.3l41,5.1
		c0,0,32.1-4.7,21.9,6.3s-23.5,4.7-23.5,4.7s-52.8,1.4-52.8-7.4c0-2.3,0.4-5.5,2.1-12.4L248.6,442.4z"/>
	<circle class="st4" cx="279.7" cy="408.7" r="20.3"/>
	<path class="st4" d="M266,420c0,0,1.6,15.6-3.9,21.9h29.7c0,0-7-6.3-1.6-18.8S266,420,266,420z"/>
	<path class="st4" d="M246.4,479.4c0.6,2.4,1.1,4.6,1.7,6.5v0c2.1,7.2,4,10.5,5.1,12c0.3,0.4,0.6,0.8,1.1,1.1l47.7-13.3
		c0,0-1.6-16.4-5.5-20.3s-2.3-25-2.3-25l-12.5-3.9c0,0-11.6-0.4-19.6-0.3c-2.5,0-4.6,0.1-6,0.2c-0.3,0-0.7,0.1-1,0.1
		C251.9,437.2,242.5,462.2,246.4,479.4z"/>
	<path class="st4" d="M283.8,444.7c0.9-3.5,4-6,7.7-6c5.2,0.1,11.5,1.3,10.1,7.5c-2.3,10.2-13.3,57.9-13.3,57.9l35.2,1.6
		c0,0,32.1-4.7,21.9,6.3c-10.2,10.9-23.5,4.7-23.5,4.7s-38.7,5.9-45-0.4c-0.1-0.1-0.1-0.1-0.2-0.2c-5.1-5-7.2-12.3-5.5-19.3
		L283.8,444.7z"/>
	<circle class="st2" cx="1049.5" cy="271.4" r="25"/>
	<path class="st5" d="M827,658c0,6.1-0.2,12.2-0.7,18.2C651.4,648.4,486.7,662,351,688.9c-1.3-10.2-2-20.6-2-30.9
		c0-132,107-239,239-239S827,526,827,658z"/>
	<path class="st6" d="M934.9,556.2l-2.5,22.2l1.6,42.8c1.3,0,2.4,1,2.5,2.4c0,0,0,0.1,0,0.1c0,2.5-2.5,1.6,0,3.3
		c1.3,0.9,2.7,1.7,4.1,2.5l26.3,79.7c0,0-6.6,8.2-18.9,5.8l-2.5-8.2c0,0-4.9-4.9-4.9-7.4s1.6-3.3,0-5.8s-26.3-52.6-26.3-52.6
		l-11.5-20.6l-3.3,28c0,0,6.6,35.4,4.9,51.8s-4.9,33.7-4.9,33.7l-19.7-3.3c-0.1-2.7-0.9-5.2-2.5-7.4c-2.5-3.3-5.8-2.5-2.5-4.9
		s7.4,0,4.1-3.3c-1.9-1.7-3-4.1-3.3-6.6v-2.5l-4.9-63.3l-9-83L934.9,556.2z"/>
	<path class="st6" d="M893,737.9l9-3.3c0,0,9.9,22.2,1.6,22.2h-21.4c0,0-12.3-4.1-18.9-4.1s-18.9-12.3-9.9-18.1s20.6-4.1,20.6-4.1
		l3.3-7.4l4.1,11.5C881.4,734.6,886.4,742.9,893,737.9z"/>
	<path class="st6" d="M959.5,719.8c0,0,5.1-3.2,7.9-2s4.4,14.4,4.4,14.4s8.2,9.9-9.9,11.5s-22.2-1.6-23.8-6.6s1.6-9.9,1.6-9.9
		l4.9-1.6c0,0,5.8-4.1,4.1-5.8s0-4.9,0-4.9S954.6,726.4,959.5,719.8z"/>
	<path class="st6" d="M886.6,384.1c-0.1-0.7-0.3-1.4-0.5-2.1c-1.2-2.5-5.8-1.8-6.7-4.4c-0.2-0.5-0.1-1.1-0.3-1.6
		c-0.6-1.3-1.9-2.1-3.3-1.9c-1.4,0.2-2.7,0.5-4,1c-3.3,0.9-6.7,0.6-10.1,0.2c-1.5-0.1-3-0.4-4.3-1.1c-1.4-0.7-2.1-2.3-1.7-3.8
		c0.4-1.4,1.9-2.1,2.6-3.4c1.1-2-0.2-4.6,0.6-6.7c1.4-3.4,6.6-2.7,9.3-5.2c0.6-0.6,1.1-1.4,1.7-2c1.8-1.9,4.7-2.2,7.4-2s5.2,1,7.8,1
		c2.5,0,5.1-0.8,7.4,0.2c1.4,0.7,2.5,1.7,3.5,2.9l5.9,6.5c0.8,0.8,1.4,1.7,1.8,2.7c0.4,1.2,0,2.6,0.2,3.8c0.3,2.9,3.1,5.1,3.4,8
		c0.1,0.9,0,1.8-0.1,2.7l-0.8,6.1c0,0.6-0.2,1.2-0.5,1.7c-0.2,0.4-0.6,0.7-0.9,1.1c-0.8,1.1-0.7,2.6-1.1,3.8s-1.7,2.6-2.9,1.9
		c-0.8-0.4-1.3-3.7-2.2-4.6c-1.3-1.2-2-1.1-3.6-1C891.9,387.9,887.6,388.2,886.6,384.1z"/>
	<path class="st6" d="M267.9,486.9c0,0,10.6-48.1,14.5-49.6c3.7-1.5,10.9,2.3,10.9,2.3s-13.1-7.4-19.6,47.3H267.9z"/>
	<path class="st6" d="M248.1,485.9L248.1,485.9c2.1,7.2,4,10.5,5.1,12c2.7-15.6,8.4-49,8.8-61.8c-2.5,0-4.6,0.1-6,0.2
		C255.6,446,251.5,462.7,248.1,485.9z"/>
	<path class="st6" d="M300.4,476.3c0,0-6.6,9.8-12.1,9s-36.1,2.6-37.6,7.9l8.7,30.4v10.9c0,0-11.1,8.6-12.2,32.2
		c-0.4,9.6,0.9,19.1,3.9,28.3l3.7,11.4c0,0-45,114.5-21.5,120s47.3,15.2,48.1,0.4s5.5-115.7,5.5-115.7S282,724.5,300,726.9
		s52.4,18.8,53.9-0.8s-39.9-180.6-39.9-180.6s0.8-24.2-12.5-33.6l-3.1-12.5C298.4,499.4,307.4,481,300.4,476.3z"/>
	<polygon class="st6" points="297.3,457.5 301.5,479.8 301.5,482.4 294.8,461.5 	"/>
	<path class="st6" d="M264.2,714.7c0,0-1.9,20.7,4.1,22.6s35.3,1.5,26.2,12.2c-6.6,7.8-58.9,2.6-56.7-0.5
		c4.2-5.7,12.6-38.1,12.6-38.1L264.2,714.7z"/>
	<path class="st6" d="M331.4,716.3c0,0-1.9,20.7,4.1,22.6s33.8,0.3,26.2,12.2c-3.6,5.7-56.1,0-56.7-0.5
		c-5.3-4.7,12.6-38.1,12.6-38.1L331.4,716.3z"/>
	<path class="st6" d="M272.2,376.4L272.2,376.4c13,0,23.5,14.6,23.5,32.6v22.9h-5.6l-3.3-8.5l0.8,8.5h-36.2l-3-7.7l0.7,7.7h-4.1v-18
		C245.2,393.1,257.3,376.4,272.2,376.4z"/>
	<path class="st6" d="M269.8,381.4c2.9-3.8,7.4-6.1,12.2-6.2h0.6c11.1,0,20.1,10.1,20.1,22.5l0,0h-3.7l-0.6-4.6l-0.9,4.6h-22.1
		l-1.9-3.9l0.5,3.9h-4.3c-2,10.1,0.9,20.1,8.7,30.2h-7.4l-3.7-7.7l0.9,7.7H254l-2.8-17.8C251.3,396.7,259,385.4,269.8,381.4z"/>
	<path class="st5" d="M1003.4,373.2l-26.3-21.6l21.6-26.3l26.3,21.6L1003.4,373.2z M979.9,351.3l23.2,19l19-23.2l-23.2-19
		L979.9,351.3z"/>
	<rect x="97.5" y="64" class="st5" width="1005" height="2"/>
	<path class="st5" d="M1083.9,150.1c0-6.6,5.4-12,12-12s12,5.4,12,12s-5.4,12-12,12C1089.3,162.1,1083.9,156.8,1083.9,150.1z
		 M1085.9,150.1c0,5.5,4.5,10,10,10s10-4.5,10-10s-4.5-10-10-10C1090.4,140.1,1085.9,144.6,1085.9,150.1z"/>
	<path class="st5" d="M1024.9,552.1c-6.6,0-12-5.4-12-12s5.4-12,12-12s12,5.4,12,12C1036.9,546.8,1031.5,552.1,1024.9,552.1z
		 M1024.9,530.1c-5.5,0-10,4.5-10,10s4.5,10,10,10s10-4.5,10-10C1034.9,534.6,1030.4,530.1,1024.9,530.1z"/>
	<rect x="1112.1" y="399.4" class="st5" width="2" height="357.7"/>
	<ellipse class="st5" cx="1113.5" cy="637.4" rx="39" ry="89"/>
	<ellipse class="st5" cx="1113.5" cy="434.4" rx="39" ry="89"/>
	<path class="st5" d="M1114.5,361.7l-1.9-0.6c0.1-0.4,11.9-40.7-7.4-66.6c-10.9-14.6-29.6-22.1-55.6-22.1v-2
		c26.7,0,45.9,7.7,57.2,22.9C1126.7,320,1114.6,361.2,1114.5,361.7z"/>
</g>
<g id="Layer_2">
	<path class="st5" d="M109.4,495.2l-26.3-21.6l21.6-26.3l26.3,21.6L109.4,495.2z M85.9,473.3l23.2,19l19-23.2l-23.2-19L85.9,473.3z"
		/>
	<path class="st5" d="M189.9,308.1c-6.6,0-12-5.4-12-12s5.4-12,12-12s12,5.4,12,12C201.9,302.8,196.5,308.1,189.9,308.1z
		 M189.9,286.1c-5.5,0-10,4.5-10,10s4.5,10,10,10s10-4.5,10-10C199.9,290.6,195.4,286.1,189.9,286.1z"/>
	<path class="st5" d="M157,173h-26v-26h26V173z M133,171h22v-22h-22V171z"/>
</g>
</svg>
