<?xml version="1.0" encoding="utf-8"?>
<!-- Generator: Adobe Illustrator 24.0.0, SVG Export Plug-In . SVG Version: 6.00 Build 0)  -->
<svg version="1.1" id="Layer_1" xmlns="http://www.w3.org/2000/svg" xmlns:xlink="http://www.w3.org/1999/xlink" x="0px" y="0px"
	 viewBox="0 0 600 600" enable-background="new 0 0 600 600" xml:space="preserve">
<filter  filterUnits="objectBoundingBox" height="108.3%" id="react-filter-472" width="101.6%" x="-0.8%" y="-2.1%">
	<feOffset  dx="0" dy="2" in="SourceAlpha" result="shadowOffsetOuter1"></feOffset>
	<feColorMatrix  in="shadowOffsetOuter1" type="matrix" values="0 0 0 0 0   0 0 0 0 0   0 0 0 0 0  0 0 0 0.1 0"></feColorMatrix>
</filter>
<g>
	<g id="Circle-Background">
		<circle id="path-1_1_" fill-rule="evenodd" clip-rule="evenodd" fill="#E6E6E5" cx="287.873" cy="303.234" r="194.035"/>
	</g>
	<defs>
		<filter id="Adobe_OpacityMaskFilter" filterUnits="userSpaceOnUse" x="93.837" y="109.198" width="388.071" height="388.071">
			<feColorMatrix  type="matrix" values="1 0 0 0 0  0 1 0 0 0  0 0 1 0 0  0 0 0 1 0"/>
		</filter>
	</defs>
	<mask maskUnits="userSpaceOnUse" x="93.837" y="109.198" width="388.071" height="388.071" id="mask-2_2_">
		<g filter="url(#Adobe_OpacityMaskFilter)">
			<circle id="path-1_3_" fill-rule="evenodd" clip-rule="evenodd" fill="#FFFFFF" cx="287.873" cy="303.234" r="194.035"/>
		</g>
	</mask>
	<g id="Color_x2F_Palette_x2F_Blue-01" mask="url(#mask-2_2_)">
		
			<rect id="_xD83D__xDD8D_Color" x="93.837" y="109.198" fill-rule="evenodd" clip-rule="evenodd" fill="#5FC197" width="388.071" height="388.071"/>
	</g>
	<defs>
		<filter id="Adobe_OpacityMaskFilter_1_" filterUnits="userSpaceOnUse" x="72.817" y="44.52" width="454.366" height="510.96">
			<feColorMatrix  type="matrix" values="1 0 0 0 0  0 1 0 0 0  0 0 1 0 0  0 0 0 1 0"/>
		</filter>
	</defs>
	<mask maskUnits="userSpaceOnUse" x="72.817" y="44.52" width="454.366" height="510.96" id="mask-4_2_">
		<g filter="url(#Adobe_OpacityMaskFilter_1_)">
			<path id="path-3_2_" fill-rule="evenodd" clip-rule="evenodd" fill="#FFFFFF" d="M93.837,303.234
				c0,107.163,86.873,194.035,194.035,194.035s194.035-86.873,194.035-194.035h19.404V44.52H74.434v258.714H93.837z"/>
		</g>
	</mask>
	<g id="Avataaar" mask="url(#mask-4_2_)">
		<g id="Body" transform="translate(32.000000, 36.000000)">
			<g>
				<path id="path-5_1_" fill-rule="evenodd" clip-rule="evenodd" fill="#D0C6AC" d="M294.68,300.561v29.734h6.468l0,0
					c64.298,0,116.421,52.124,116.421,116.421v14.553H94.177v-14.553c0-64.298,52.124-116.421,116.421-116.421l0,0h6.468v-29.734
					c-27.872-13.241-47.907-40.301-51.249-72.326c-9.419-1.331-16.663-9.425-16.663-19.212v-22.637
					c0-9.614,6.993-17.596,16.17-19.135v-9.97l0,0c0-50.009,40.541-90.55,90.55-90.55l0,0l0,0c50.009,0,90.55,40.541,90.55,90.55
					v9.97c9.177,1.54,16.17,9.521,16.17,19.135v22.637c0,9.786-7.245,17.88-16.663,19.212
					C342.587,260.26,322.552,287.32,294.68,300.561z"/>
			</g>
			<defs>
				<filter id="Adobe_OpacityMaskFilter_2_" filterUnits="userSpaceOnUse" x="42.434" y="66.731" width="426.878" height="394.539">
					<feColorMatrix  type="matrix" values="1 0 0 0 0  0 1 0 0 0  0 0 1 0 0  0 0 0 1 0"/>
				</filter>
			</defs>
			<mask maskUnits="userSpaceOnUse" x="42.434" y="66.731" width="426.878" height="394.539" id="mask-6_4_">
				<g filter="url(#Adobe_OpacityMaskFilter_2_)">
					<path id="path-5_5_" fill-rule="evenodd" clip-rule="evenodd" fill="#FFFFFF" d="M294.68,300.561v29.734h6.468l0,0
						c64.298,0,116.421,52.124,116.421,116.421v14.553H94.177v-14.553c0-64.298,52.124-116.421,116.421-116.421l0,0h6.468v-29.734
						c-27.872-13.241-47.907-40.301-51.249-72.326c-9.419-1.331-16.663-9.425-16.663-19.212v-22.637
						c0-9.614,6.993-17.596,16.17-19.135v-9.97l0,0c0-50.009,40.541-90.55,90.55-90.55l0,0l0,0c50.009,0,90.55,40.541,90.55,90.55
						v9.97c9.177,1.54,16.17,9.521,16.17,19.135v22.637c0,9.786-7.245,17.88-16.663,19.212
						C342.587,260.26,322.552,287.32,294.68,300.561z"/>
				</g>
			</mask>
			<g id="Skin_x2F__xD83D__xDC76__xD83C__xDFFD_-03-Brown" mask="url(#mask-6_4_)">
				<g id="Color" transform="translate(-32.000000, 0.000000)">
					<rect x="74.434" y="66.731" fill-rule="evenodd" clip-rule="evenodd" fill="#D8996F" width="426.878" height="394.539"/>
				</g>
			</g>
			<defs>
				<filter id="Adobe_OpacityMaskFilter_3_" filterUnits="userSpaceOnUse" x="165.323" y="194.471" width="181.1" height="127.74">
					<feColorMatrix  type="matrix" values="1 0 0 0 0  0 1 0 0 0  0 0 1 0 0  0 0 0 1 0"/>
				</filter>
			</defs>
			<mask maskUnits="userSpaceOnUse" x="165.323" y="194.471" width="181.1" height="127.74" id="mask-6_3_">
				<g filter="url(#Adobe_OpacityMaskFilter_3_)">
					<path id="path-5_4_" fill-rule="evenodd" clip-rule="evenodd" fill="#FFFFFF" d="M294.68,300.561v29.734h6.468l0,0
						c64.298,0,116.421,52.124,116.421,116.421v14.553H94.177v-14.553c0-64.298,52.124-116.421,116.421-116.421l0,0h6.468v-29.734
						c-27.872-13.241-47.907-40.301-51.249-72.326c-9.419-1.331-16.663-9.425-16.663-19.212v-22.637
						c0-9.614,6.993-17.596,16.17-19.135v-9.97l0,0c0-50.009,40.541-90.55,90.55-90.55l0,0l0,0c50.009,0,90.55,40.541,90.55,90.55
						v9.97c9.177,1.54,16.17,9.521,16.17,19.135v22.637c0,9.786-7.245,17.88-16.663,19.212
						C342.587,260.26,322.552,287.32,294.68,300.561z"/>
				</g>
			</mask>
			<path id="Neck-Shadow" mask="url(#mask-6_3_)" fill-rule="evenodd" clip-rule="evenodd" fill="#010101" fill-opacity="0.1" d="
				M346.423,194.471v37.19c0,50.009-40.541,90.55-90.55,90.55s-90.55-40.541-90.55-90.55v-37.19v24.254
				c0,50.009,40.541,90.55,90.55,90.55s90.55-40.541,90.55-90.55V194.471z"/>
		</g>
		<g id="Clothing_x2F_Hoodie" transform="translate(0.000000, 170.000000)">
			<g id="Hoodie">
				<path id="react-path-513_1_" fill-rule="evenodd" clip-rule="evenodd" fill="#B7C1DB" d="M249.066,170.539
					c-28.974,3.242-51.29,12.096-51.736,34.884c-41.811,17.662-71.153,59.051-71.153,107.293l0,0v14.553h323.392v-14.553
					c0-48.242-29.342-89.63-71.153-107.293c-0.446-22.788-22.762-31.642-51.736-34.884v30.608l0,0
					c0,21.433-17.375,38.807-38.807,38.807l0,0c-21.433,0-38.807-17.375-38.807-38.807V170.539z"/>
			</g>
			<defs>
				
					<filter id="Adobe_OpacityMaskFilter_4_" filterUnits="userSpaceOnUse" x="74.434" y="149.404" width="426.878" height="177.866">
					<feColorMatrix  type="matrix" values="1 0 0 0 0  0 1 0 0 0  0 0 1 0 0  0 0 0 1 0"/>
				</filter>
			</defs>
			<mask maskUnits="userSpaceOnUse" x="74.434" y="149.404" width="426.878" height="177.866" id="react-mask-514_6_">
				<g filter="url(#Adobe_OpacityMaskFilter_4_)">
					<path id="react-path-513_7_" fill-rule="evenodd" clip-rule="evenodd" fill="#FFFFFF" d="M249.066,170.539
						c-28.974,3.242-51.29,12.096-51.736,34.884c-41.811,17.662-71.153,59.051-71.153,107.293l0,0v14.553h323.392v-14.553
						c0-48.242-29.342-89.63-71.153-107.293c-0.446-22.788-22.762-31.642-51.736-34.884v30.608l0,0
						c0,21.433-17.375,38.807-38.807,38.807l0,0c-21.433,0-38.807-17.375-38.807-38.807V170.539z"/>
				</g>
			</mask>
			<g id="Color_x2F_Palette_x2F_Gray-01" mask="url(#react-mask-514_6_)">
				
					<rect id="_xD83D__xDD8D_Color_1_" x="74.434" y="149.404" fill-rule="evenodd" clip-rule="evenodd" fill="#EF3D4D" width="426.878" height="177.866"/>
			</g>
			<defs>
				<filter id="Adobe_OpacityMaskFilter_5_" filterUnits="userSpaceOnUse" x="228.045" y="243.43" width="119.655" height="83.839">
					<feColorMatrix  type="matrix" values="1 0 0 0 0  0 1 0 0 0  0 0 1 0 0  0 0 0 1 0"/>
				</filter>
			</defs>
			<mask maskUnits="userSpaceOnUse" x="228.045" y="243.43" width="119.655" height="83.839" id="react-mask-514_5_">
				<g filter="url(#Adobe_OpacityMaskFilter_5_)">
					<path id="react-path-513_6_" fill-rule="evenodd" clip-rule="evenodd" fill="#FFFFFF" d="M249.066,170.539
						c-28.974,3.242-51.29,12.096-51.736,34.884c-41.811,17.662-71.153,59.051-71.153,107.293l0,0v14.553h323.392v-14.553
						c0-48.242-29.342-89.63-71.153-107.293c-0.446-22.788-22.762-31.642-51.736-34.884v30.608l0,0
						c0,21.433-17.375,38.807-38.807,38.807l0,0c-21.433,0-38.807-17.375-38.807-38.807V170.539z"/>
				</g>
			</mask>
			<path id="Straps" mask="url(#react-mask-514_5_)" fill-rule="evenodd" clip-rule="evenodd" fill="#F4F4F4" d="M239.364,249.233
				v78.036h-11.319V243.43C231.609,245.548,235.397,247.49,239.364,249.233z M347.7,243.43v65.244c0,3.126-2.534,5.659-5.659,5.659
				s-5.659-2.534-5.659-5.659v-59.441C340.348,247.49,344.137,245.548,347.7,243.43z"/>
			<defs>
				
					<filter id="Adobe_OpacityMaskFilter_6_" filterUnits="userSpaceOnUse" x="180.345" y="169.978" width="215.056" height="89.379">
					<feColorMatrix  type="matrix" values="1 0 0 0 0  0 1 0 0 0  0 0 1 0 0  0 0 0 1 0"/>
				</filter>
			</defs>
			<mask maskUnits="userSpaceOnUse" x="180.345" y="169.978" width="215.056" height="89.379" id="react-mask-514_4_">
				<g filter="url(#Adobe_OpacityMaskFilter_6_)">
					<path id="react-path-513_5_" fill-rule="evenodd" clip-rule="evenodd" fill="#FFFFFF" d="M249.066,170.539
						c-28.974,3.242-51.29,12.096-51.736,34.884c-41.811,17.662-71.153,59.051-71.153,107.293l0,0v14.553h323.392v-14.553
						c0-48.242-29.342-89.63-71.153-107.293c-0.446-22.788-22.762-31.642-51.736-34.884v30.608l0,0
						c0,21.433-17.375,38.807-38.807,38.807l0,0c-21.433,0-38.807-17.375-38.807-38.807V170.539z"/>
				</g>
			</mask>
			
				<path id="Shadow" mask="url(#react-mask-514_4_)" fill-rule="evenodd" clip-rule="evenodd" fill="#010101" fill-opacity="0.16" d="
				M221.513,169.978c-24.337,4.603-41.168,13.774-41.168,31.666c0,31.874,53.421,57.713,107.528,57.713
				s107.528-25.839,107.528-57.713c0-17.891-16.831-27.062-41.168-31.666c14.69,5.417,24.19,14.523,24.19,29.675
				c0,32.973-44.986,59.703-90.55,59.703s-90.55-26.73-90.55-59.703C197.323,184.501,206.823,175.395,221.513,169.978z"/>
		</g>
		<g id="Face" transform="translate(76.000000, 82.000000)">
			<g id="Mouth_x2F_Smile" transform="translate(2.000000, 52.000000)">
				<g id="Mouth">
					<path id="react-path-282_1_" fill-rule="evenodd" clip-rule="evenodd" fill="#010101" fill-opacity="0.7" d="M179.341,151.654
						c1.711,15.348,14.728,27.281,30.532,27.281c15.853,0,28.902-12.007,30.547-27.424c0.132-1.241-1.253-3.299-2.99-3.299
						c-24.083,0-42.534,0-54.905,0C180.778,148.213,179.17,150.119,179.341,151.654z"/>
				</g>
				<defs>
					
						<filter id="Adobe_OpacityMaskFilter_7_" filterUnits="userSpaceOnUse" x="185.618" y="130.427" width="50.126" height="25.871">
						<feColorMatrix  type="matrix" values="1 0 0 0 0  0 1 0 0 0  0 0 1 0 0  0 0 0 1 0"/>
					</filter>
				</defs>
				<mask maskUnits="userSpaceOnUse" x="185.618" y="130.427" width="50.126" height="25.871" id="react-mask-283_4_">
					<g filter="url(#Adobe_OpacityMaskFilter_7_)">
						<path id="react-path-282_6_" fill-rule="evenodd" clip-rule="evenodd" fill="#FFFFFF" d="M179.341,151.654
							c1.711,15.348,14.728,27.281,30.532,27.281c15.853,0,28.902-12.007,30.547-27.424c0.132-1.241-1.253-3.299-2.99-3.299
							c-24.083,0-42.534,0-54.905,0C180.778,148.213,179.17,150.119,179.341,151.654z"/>
					</g>
				</mask>
				<path id="Teeth" mask="url(#react-mask-283_4_)" fill-rule="evenodd" clip-rule="evenodd" fill="#FFFFFF" d="M193.703,130.427
					h33.956c4.465,0,8.085,3.62,8.085,8.085v9.702c0,4.465-3.62,8.085-8.085,8.085h-33.956c-4.465,0-8.085-3.62-8.085-8.085v-9.702
					C185.618,134.047,189.238,130.427,193.703,130.427z"/>
				<defs>
					<filter id="Adobe_OpacityMaskFilter_8_" filterUnits="userSpaceOnUse" x="184.001" y="166" width="51.743" height="35.573">
						<feColorMatrix  type="matrix" values="1 0 0 0 0  0 1 0 0 0  0 0 1 0 0  0 0 0 1 0"/>
					</filter>
				</defs>
				<mask maskUnits="userSpaceOnUse" x="184.001" y="166" width="51.743" height="35.573" id="react-mask-283_3_">
					<g filter="url(#Adobe_OpacityMaskFilter_8_)">
						<path id="react-path-282_4_" fill-rule="evenodd" clip-rule="evenodd" fill="#FFFFFF" d="M179.341,151.654
							c1.711,15.348,14.728,27.281,30.532,27.281c15.853,0,28.902-12.007,30.547-27.424c0.132-1.241-1.253-3.299-2.99-3.299
							c-24.083,0-42.534,0-54.905,0C180.778,148.213,179.17,150.119,179.341,151.654z"/>
					</g>
				</mask>
				<g id="Tongue" mask="url(#react-mask-283_3_)">
					<g transform="translate(38.000000, 24.000000)">
						<circle fill-rule="evenodd" clip-rule="evenodd" fill="#F0526E" cx="163.788" cy="159.787" r="17.787"/>
						<circle fill-rule="evenodd" clip-rule="evenodd" fill="#F0526E" cx="179.958" cy="159.787" r="17.787"/>
					</g>
				</g>
			</g>
			<g id="Nose_x2F_Default" transform="translate(28.000000, 40.000000)">
				<path id="Nose" fill-rule="evenodd" clip-rule="evenodd" fill="#010101" fill-opacity="0.16" d="M164.469,132.725
					c0,7.144,8.687,12.936,19.404,12.936l0,0c10.716,0,19.404-5.792,19.404-12.936"/>
			</g>
			<g id="Eyes_x2F_Side-_xD83D__xDE12_" transform="translate(0.000000, 8.000000)">
				<path id="Eye" fill-rule="evenodd" clip-rule="evenodd" fill="#010101" fill-opacity="0.6" d="M165.37,132.945
					c-1.258,1.636-2.007,3.685-2.007,5.909c0,5.358,4.344,9.702,9.702,9.702c5.358,0,9.702-4.344,9.702-9.702
					c0-0.469-0.033-0.931-0.098-1.382c0.013-0.36-0.048-0.767-0.201-1.193c-0.073-0.203-0.151-0.404-0.234-0.602
					c-0.54-1.557-1.464-2.934-2.66-4.017c-3.438-3.611-8.924-5.741-14.598-5.741c-7.815,0-14.538,4.283-17.524,10.425
					c-0.873,1.797,0.625,2.996,2.065,1.818c3.939-3.222,9.41-5.219,15.458-5.219C165.108,132.942,165.24,132.943,165.37,132.945z"/>
				<path id="Eye_1_" fill-rule="evenodd" clip-rule="evenodd" fill="#010101" fill-opacity="0.6" d="M259.154,132.945
					c-1.258,1.636-2.007,3.685-2.007,5.909c0,5.358,4.344,9.702,9.702,9.702c5.358,0,9.702-4.344,9.702-9.702
					c0-0.469-0.033-0.931-0.098-1.382c0.013-0.36-0.048-0.767-0.201-1.193c-0.073-0.203-0.151-0.404-0.234-0.602
					c-0.54-1.557-1.464-2.934-2.66-4.017c-3.438-3.611-8.924-5.741-14.598-5.741c-7.815,0-14.538,4.283-17.524,10.425
					c-0.873,1.797,0.625,2.996,2.065,1.818c3.939-3.222,9.41-5.219,15.458-5.219C258.892,132.942,259.023,132.943,259.154,132.945z"
					/>
			</g>
			<g id="Eyebrow_x2F_Natural_x2F_Flat-Natural">
				<path id="Fill-10" fill-rule="evenodd" clip-rule="evenodd" fill="#161616" fill-opacity="0.6" d="M183.834,113.043
					c-8.081,0.585-16.044,0.138-24.121-0.197c-6.193-0.256-12.479-1.102-18.391,1.636c-1.132,0.524-7.325,3.685-7.181,5.415
					c0.115,1.383,6.364,3.544,7.489,3.939c5.932,2.086,11.611,1.448,17.712,1.082c7.483-0.448,14.933-0.119,22.413-0.344
					c5.037-0.151,12.801-1.004,15.291-7.112c0.75-1.839,0.17-5.519-0.581-7.531c-0.3-0.801-1.165-1.103-1.82-0.642
					C192.3,110.944,187.754,112.76,183.834,113.043"/>
				<path id="Fill-10_1_" fill-rule="evenodd" clip-rule="evenodd" fill="#161616" fill-opacity="0.6" d="M239.912,113.043
					c8.081,0.585,16.044,0.138,24.121-0.197c6.193-0.256,12.479-1.102,18.391,1.636c1.132,0.524,7.325,3.685,7.181,5.415
					c-0.115,1.383-6.364,3.544-7.489,3.939c-5.932,2.086-11.611,1.448-17.712,1.082c-7.483-0.448-14.933-0.119-22.413-0.344
					c-5.037-0.151-12.801-1.004-15.291-7.112c-0.75-1.839-0.17-5.519,0.581-7.531c0.3-0.801,1.165-1.103,1.82-0.642
					C231.445,110.944,235.992,112.76,239.912,113.043"/>
			</g>
		</g>
		<g id="Mask_1_">
		</g>
		<defs>
			<filter id="Adobe_OpacityMaskFilter_9_" filterUnits="userSpaceOnUse" x="72.817" y="44.52" width="454.366" height="510.96">
				<feColorMatrix  type="matrix" values="1 0 0 0 0  0 1 0 0 0  0 0 1 0 0  0 0 0 1 0"/>
			</filter>
		</defs>
		<mask maskUnits="userSpaceOnUse" x="72.817" y="44.52" width="454.366" height="510.96" id="react-mask-468_2_">
			<g filter="url(#Adobe_OpacityMaskFilter_9_)">
				
					<rect id="react-path-470_2_" x="74.434" y="44.52" fill-rule="evenodd" clip-rule="evenodd" fill="#FFFFFF" width="426.878" height="452.749"/>
			</g>
		</mask>
		<g id="Top_x2F_Short-Hair_x2F_Short-Curly" mask="url(#react-mask-468_2_)">
			<g transform="translate(-1.000000, 0.000000)">
				<g id="Facial-Hair_x2F_Beard-Light" transform="translate(49.000000, 72.000000)">
					<g id="Lite-Beard">
						<path id="react-path-488_1_" fill-rule="evenodd" clip-rule="evenodd" fill="#181616" d="M268.054,247.676
							c-4.064,3.709-8.394,5.378-13.866,4.211c-0.942-0.201-4.781-7.338-14.315-7.338c-9.534,0-13.373,7.138-14.315,7.338
							c-5.472,1.167-9.802-0.502-13.866-4.211c-7.64-6.974-13.994-16.591-10.176-27.083c1.99-5.469,5.226-11.473,11.113-13.216
							c6.286-1.86,15.113-0.003,21.448-1.274c2.052-0.412,4.294-1.144,5.797-2.358c1.502,1.214,3.745,1.946,5.796,2.358
							c6.336,1.27,15.162-0.587,21.448,1.274c5.887,1.743,9.123,7.747,11.114,13.216
							C282.049,231.085,275.695,240.702,268.054,247.676 M330.554,130.982c-5.514,13.583-3.385,30.493-4.405,44.751
							c-0.829,11.589-3.266,28.96-13.556,36.444c-5.262,3.827-14.841,10.26-21.717,8.466c-4.733-1.235-5.238-14.812-11.459-19.894
							c-7.056-5.764-15.866-8.297-24.749-7.906c-3.833,0.169-11.586,0.129-14.794,3.076c-3.208-2.948-10.96-2.908-14.793-3.076
							c-8.884-0.391-17.694,2.142-24.75,7.906c-6.22,5.082-6.725,18.659-11.458,19.894c-6.876,1.794-16.455-4.638-21.718-8.466
							c-10.291-7.485-12.727-24.855-13.557-36.444c-1.02-14.258,1.11-31.168-4.405-44.751c-2.683,0-0.913,26.08-0.913,26.08v32.915
							c0.051,24.72,15.492,61.72,49.728,75.848c8.373,3.455,27.338,9.066,41.866,9.066c14.528,0,33.493-5.077,41.866-8.532
							c34.236-14.128,49.677-51.662,49.729-76.382v-32.915C331.467,157.062,333.236,130.982,330.554,130.982"/>
					</g>
					<defs>
						
							<filter id="Adobe_OpacityMaskFilter_10_" filterUnits="userSpaceOnUse" x="52.305" y="88.941" width="426.878" height="394.539">
							<feColorMatrix  type="matrix" values="1 0 0 0 0  0 1 0 0 0  0 0 1 0 0  0 0 0 1 0"/>
						</filter>
					</defs>
					<mask maskUnits="userSpaceOnUse" x="52.305" y="88.941" width="426.878" height="394.539" id="react-mask-487_2_">
						<g filter="url(#Adobe_OpacityMaskFilter_10_)">
							<path id="react-path-488_3_" fill-rule="evenodd" clip-rule="evenodd" fill="#FFFFFF" d="M268.054,247.676
								c-4.064,3.709-8.394,5.378-13.866,4.211c-0.942-0.201-4.781-7.338-14.315-7.338c-9.534,0-13.373,7.138-14.315,7.338
								c-5.472,1.167-9.802-0.502-13.866-4.211c-7.64-6.974-13.994-16.591-10.176-27.083c1.99-5.469,5.226-11.473,11.113-13.216
								c6.286-1.86,15.113-0.003,21.448-1.274c2.052-0.412,4.294-1.144,5.797-2.358c1.502,1.214,3.745,1.946,5.796,2.358
								c6.336,1.27,15.162-0.587,21.448,1.274c5.887,1.743,9.123,7.747,11.114,13.216
								C282.049,231.085,275.695,240.702,268.054,247.676 M330.554,130.982c-5.514,13.583-3.385,30.493-4.405,44.751
								c-0.829,11.589-3.266,28.96-13.556,36.444c-5.262,3.827-14.841,10.26-21.717,8.466c-4.733-1.235-5.238-14.812-11.459-19.894
								c-7.056-5.764-15.866-8.297-24.749-7.906c-3.833,0.169-11.586,0.129-14.794,3.076c-3.208-2.948-10.96-2.908-14.793-3.076
								c-8.884-0.391-17.694,2.142-24.75,7.906c-6.22,5.082-6.725,18.659-11.458,19.894c-6.876,1.794-16.455-4.638-21.718-8.466
								c-10.291-7.485-12.727-24.855-13.557-36.444c-1.02-14.258,1.11-31.168-4.405-44.751c-2.683,0-0.913,26.08-0.913,26.08v32.915
								c0.051,24.72,15.492,61.72,49.728,75.848c8.373,3.455,27.338,9.066,41.866,9.066c14.528,0,33.493-5.077,41.866-8.532
								c34.236-14.128,49.677-51.662,49.729-76.382v-32.915C331.467,157.062,333.236,130.982,330.554,130.982"/>
						</g>
					</mask>
					<g id="Color_x2F_Hair_x2F_Brown" mask="url(#react-mask-487_2_)">
						<g id="Color_1_" transform="translate(-32.000000, 0.000000)">
							<rect x="84.305" y="88.941" fill-rule="evenodd" clip-rule="evenodd" fill="#1F1C1C" width="426.878" height="394.539"/>
						</g>
					</g>
				</g>
				<g id="Short-Hair">
					<path id="react-path-469_1_" fill-rule="evenodd" clip-rule="evenodd" fill="#28354B" d="M226.219,128.638
						c0.199-0.088-0.295-0.122-1.481-0.101C226.179,128.534,226.673,128.567,226.219,128.638 M213.065,103.218
						C213.061,103.187,213.092,103.463,213.065,103.218 M387.128,158.945c-0.427-5.363-1.184-10.694-2.455-15.934
						c-1.01-4.165-2.389-8.139-4.021-12.113c-0.985-2.401-3.286-5.698-3.557-8.288c-0.267-2.551,1.724-5.377,2.149-8.347
						c0.412-2.89,0.342-5.93-0.251-8.794c-1.347-6.505-5.811-12.554-12.704-14.249c-1.539-0.379-4.792,0.088-5.88-0.808
						c-1.247-1.028-2.115-4.529-3.244-5.933c-3.218-4.004-8.238-6.582-13.532-5.683c-3.898,0.662-1.66,1.468-4.582-0.827
						c-1.625-1.275-2.839-3.223-4.417-4.604c-2.372-2.074-5.094-3.85-7.91-5.307c-7.368-3.813-15.772-6.584-24.002-7.935
						c-15.014-2.465-31.038-0.316-45.591,3.589c-7.241,1.943-14.532,4.408-21.258,7.669c-2.884,1.398-4.549,2.558-7.555,2.924
						c-4.736,0.577-8.746,0.548-13.232,2.556c-13.803,6.18-20.02,20.517-14.649,34.238c1.08,2.759,2.543,5.183,4.56,7.411
						c2.459,2.718,3.348,2.183,1.231,5.308c-3.167,4.673-5.837,9.656-8.011,14.83c-5.706,13.585-6.661,28.886-6.289,43.374
						c0.13,5.072,0.348,10.207,1.147,15.23c0.345,2.174,0.442,6.263,2.073,7.876c0.827,0.818,2.006,1.274,3.183,0.949
						c2.764-0.766,1.814-2.806,1.878-4.699c0.323-9.514-0.113-17.93,2.149-27.329c1.671-6.944,4.457-13.251,8.066-19.46
						c4.59-7.898,9.545-14.833,15.857-21.596c1.484-1.59,1.808-2.264,3.798-2.38c1.507-0.087,3.711,0.945,5.176,1.302
						c3.23,0.787,6.467,1.566,9.756,2.096c6.047,0.975,12.035,1.04,18.137,0.849c12.008-0.376,24.068-1.218,35.711-4.242
						c7.732-2.008,14.587-5.612,21.994-8.254c0.132-0.047,1.988-1.37,2.314-1.316c0.454,0.075,3.197,2.952,3.66,3.315
						c3.599,2.822,7.546,4.007,11.433,6.193c4.792,2.695,0.151-1.161,2.794,2.197c0.77,0.978,1.165,2.791,1.783,3.899
						c1.966,3.529,4.701,6.632,7.973,9.093c3.161,2.378,7.912,3.527,9.524,6.622c1.243,2.388,1.662,5.634,2.665,8.183
						c2.631,6.687,6.107,12.922,9.582,19.22c2.8,5.075,5.862,9.509,6.173,15.309c0.108,2.019-1.813,14.128,2.866,10.445
						c0.694-0.546,2.189-6.72,2.497-7.768c1.247-4.257,1.69-8.701,2.255-13.075C387.492,175.983,387.861,167.706,387.128,158.945"/>
				</g>
				<defs>
					
						<filter id="Adobe_OpacityMaskFilter_11_" filterUnits="userSpaceOnUse" x="73.817" y="44.52" width="426.878" height="452.749">
						<feColorMatrix  type="matrix" values="1 0 0 0 0  0 1 0 0 0  0 0 1 0 0  0 0 0 1 0"/>
					</filter>
				</defs>
				<mask maskUnits="userSpaceOnUse" x="73.817" y="44.52" width="426.878" height="452.749" id="react-mask-467_2_">
					<g filter="url(#Adobe_OpacityMaskFilter_11_)">
						<path id="react-path-469_3_" fill-rule="evenodd" clip-rule="evenodd" fill="#FFFFFF" d="M226.219,128.638
							c0.199-0.088-0.295-0.122-1.481-0.101C226.179,128.534,226.673,128.567,226.219,128.638 M213.065,103.218
							C213.061,103.187,213.092,103.463,213.065,103.218 M387.128,158.945c-0.427-5.363-1.184-10.694-2.455-15.934
							c-1.01-4.165-2.389-8.139-4.021-12.113c-0.985-2.401-3.286-5.698-3.557-8.288c-0.267-2.551,1.724-5.377,2.149-8.347
							c0.412-2.89,0.342-5.93-0.251-8.794c-1.347-6.505-5.811-12.554-12.704-14.249c-1.539-0.379-4.792,0.088-5.88-0.808
							c-1.247-1.028-2.115-4.529-3.244-5.933c-3.218-4.004-8.238-6.582-13.532-5.683c-3.898,0.662-1.66,1.468-4.582-0.827
							c-1.625-1.275-2.839-3.223-4.417-4.604c-2.372-2.074-5.094-3.85-7.91-5.307c-7.368-3.813-15.772-6.584-24.002-7.935
							c-15.014-2.465-31.038-0.316-45.591,3.589c-7.241,1.943-14.532,4.408-21.258,7.669c-2.884,1.398-4.549,2.558-7.555,2.924
							c-4.736,0.577-8.746,0.548-13.232,2.556c-13.803,6.18-20.02,20.517-14.649,34.238c1.08,2.759,2.543,5.183,4.56,7.411
							c2.459,2.718,3.348,2.183,1.231,5.308c-3.167,4.673-5.837,9.656-8.011,14.83c-5.706,13.585-6.661,28.886-6.289,43.374
							c0.13,5.072,0.348,10.207,1.147,15.23c0.345,2.174,0.442,6.263,2.073,7.876c0.827,0.818,2.006,1.274,3.183,0.949
							c2.764-0.766,1.814-2.806,1.878-4.699c0.323-9.514-0.113-17.93,2.149-27.329c1.671-6.944,4.457-13.251,8.066-19.46
							c4.59-7.898,9.545-14.833,15.857-21.596c1.484-1.59,1.808-2.264,3.798-2.38c1.507-0.087,3.711,0.945,5.176,1.302
							c3.23,0.787,6.467,1.566,9.756,2.096c6.047,0.975,12.035,1.04,18.137,0.849c12.008-0.376,24.068-1.218,35.711-4.242
							c7.732-2.008,14.587-5.612,21.994-8.254c0.132-0.047,1.988-1.37,2.314-1.316c0.454,0.075,3.197,2.952,3.66,3.315
							c3.599,2.822,7.546,4.007,11.433,6.193c4.792,2.695,0.151-1.161,2.794,2.197c0.77,0.978,1.165,2.791,1.783,3.899
							c1.966,3.529,4.701,6.632,7.973,9.093c3.161,2.378,7.912,3.527,9.524,6.622c1.243,2.388,1.662,5.634,2.665,8.183
							c2.631,6.687,6.107,12.922,9.582,19.22c2.8,5.075,5.862,9.509,6.173,15.309c0.108,2.019-1.813,14.128,2.866,10.445
							c0.694-0.546,2.189-6.72,2.497-7.768c1.247-4.257,1.69-8.701,2.255-13.075C387.492,175.983,387.861,167.706,387.128,158.945"
							/>
					</g>
				</mask>
				<g id="Skin_x2F__xD83D__xDC76__xD83C__xDFFD_-03-Brown_1_" mask="url(#react-mask-467_2_)">
					<g id="Color_2_" transform="translate(0.000000, 0.000000) ">
						<rect x="73.817" y="44.52" fill-rule="evenodd" clip-rule="evenodd" fill="#1E1B1B" width="426.878" height="452.749"/>
					</g>
				</g>
				<g id="Top_x2F__x5F_Resources_x2F_Round" transform="translate(62.000000, 85.000000)" display="none">
					<g id="Lennon-Glasses" display="inline">
						<g filter="url(#react-filter-472)">
							<path id="react-path-471_2_" fill-rule="evenodd" clip-rule="evenodd" fill="#010101" d="M242.177,123.47
								c6.331-12.831,19.546-21.658,34.822-21.658c14.423,0,27.008,7.868,33.697,19.546c0.34-0.093,0.698-0.142,1.067-0.142h12.936
								c2.233,0,4.042,1.81,4.042,4.042s-1.81,4.042-4.042,4.042h-10.57c1.09,3.581,1.677,7.381,1.677,11.319
								c0,21.433-17.375,38.807-38.807,38.807c-21.433,0-38.807-17.375-38.807-38.807c0-2.299,0.2-4.552,0.583-6.741
								c-0.137-7.076-5.574-12.663-12.125-12.663c-6.042,0-11.137,4.753-11.999,11.044c0.591,2.692,0.903,5.49,0.903,8.36
								c0,21.433-17.375,38.807-38.807,38.807s-38.807-17.375-38.807-38.807c0-3.937,0.586-7.738,1.677-11.319h-10.57
								c-2.233,0-4.042-1.81-4.042-4.042s1.81-4.042,4.042-4.042l0,0h12.936c0.369,0,0.727,0.05,1.067,0.142
								c6.689-11.678,19.275-19.546,33.697-19.546c15.122,0,28.224,8.649,34.628,21.271c3.359-5.038,8.948-8.335,15.275-8.335
								C233.138,114.748,238.85,118.215,242.177,123.47z M176.747,172.959c17.86,0,32.339-14.479,32.339-32.339
								s-14.479-32.339-32.339-32.339s-32.339,14.479-32.339,32.339S158.886,172.959,176.747,172.959z M276.999,172.959
								c17.86,0,32.339-14.479,32.339-32.339s-14.479-32.339-32.339-32.339c-17.86,0-32.339,14.479-32.339,32.339
								S259.138,172.959,276.999,172.959z"/>
						</g>
						<g>
							<path id="react-path-471_1_" fill-rule="evenodd" clip-rule="evenodd" fill="#262C2F" d="M242.177,123.47
								c6.331-12.831,19.546-21.658,34.822-21.658c14.423,0,27.008,7.868,33.697,19.546c0.34-0.093,0.698-0.142,1.067-0.142h12.936
								c2.233,0,4.042,1.81,4.042,4.042s-1.81,4.042-4.042,4.042h-10.57c1.09,3.581,1.677,7.381,1.677,11.319
								c0,21.433-17.375,38.807-38.807,38.807c-21.433,0-38.807-17.375-38.807-38.807c0-2.299,0.2-4.552,0.583-6.741
								c-0.137-7.076-5.574-12.663-12.125-12.663c-6.042,0-11.137,4.753-11.999,11.044c0.591,2.692,0.903,5.49,0.903,8.36
								c0,21.433-17.375,38.807-38.807,38.807s-38.807-17.375-38.807-38.807c0-3.937,0.586-7.738,1.677-11.319h-10.57
								c-2.233,0-4.042-1.81-4.042-4.042s1.81-4.042,4.042-4.042l0,0h12.936c0.369,0,0.727,0.05,1.067,0.142
								c6.689-11.678,19.275-19.546,33.697-19.546c15.122,0,28.224,8.649,34.628,21.271c3.359-5.038,8.948-8.335,15.275-8.335
								C233.138,114.748,238.85,118.215,242.177,123.47z M176.747,172.959c17.86,0,32.339-14.479,32.339-32.339
								s-14.479-32.339-32.339-32.339s-32.339,14.479-32.339,32.339S158.886,172.959,176.747,172.959z M276.999,172.959
								c17.86,0,32.339-14.479,32.339-32.339s-14.479-32.339-32.339-32.339c-17.86,0-32.339,14.479-32.339,32.339
								S259.138,172.959,276.999,172.959z"/>
						</g>
					</g>
				</g>
			</g>
		</g>
	</g>
	<path id="Fill-10_2_" fill-rule="evenodd" clip-rule="evenodd" fill="#161616" fill-opacity="0.6" d="M315.912,195.043
		c8.081,0.585,16.044,0.138,24.121-0.197c6.193-0.256,12.479-1.102,18.391,1.636c1.132,0.524,7.325,3.685,7.181,5.415
		c-0.115,1.383-6.364,3.544-7.489,3.939c-5.932,2.086-11.611,1.448-17.712,1.082c-7.483-0.448-14.933-0.119-22.413-0.344
		c-5.037-0.151-12.801-1.004-15.291-7.112c-0.75-1.839-0.17-5.519,0.581-7.531c0.3-0.801,1.165-1.103,1.82-0.641
		C307.445,192.944,311.992,194.76,315.912,195.043"/>
	<path id="Fill-10_6_" fill-rule="evenodd" clip-rule="evenodd" fill="#161616" fill-opacity="0.6" d="M315.912,195.043
		c8.081,0.585,16.044,0.138,24.121-0.197c6.193-0.256,12.479-1.102,18.391,1.636c1.132,0.524,7.325,3.685,7.181,5.415
		c-0.115,1.383-6.364,3.544-7.489,3.939c-5.932,2.086-11.611,1.448-17.712,1.082c-7.483-0.448-14.933-0.119-22.413-0.344
		c-5.037-0.151-12.801-1.004-15.291-7.112c-0.75-1.839-0.17-5.519,0.581-7.531c0.3-0.801,1.165-1.103,1.82-0.641
		C307.445,192.944,311.992,194.76,315.912,195.043"/>
	<path id="Fill-10_8_" fill-rule="evenodd" clip-rule="evenodd" fill="#161616" fill-opacity="0.6" d="M259.834,195.043
		c-8.081,0.585-16.044,0.138-24.121-0.197c-6.193-0.256-12.479-1.102-18.391,1.636c-1.132,0.524-7.325,3.685-7.181,5.415
		c0.115,1.383,6.364,3.544,7.489,3.939c5.932,2.086,11.611,1.448,17.712,1.082c7.483-0.448,14.933-0.119,22.413-0.344
		c5.037-0.151,12.801-1.004,15.291-7.112c0.75-1.839,0.17-5.519-0.581-7.531c-0.3-0.801-1.165-1.103-1.82-0.641
		C268.3,192.944,263.754,194.76,259.834,195.043"/>
</g>
</svg>
