<svg id="Capa_1" data-name="Capa 1" xmlns="http://www.w3.org/2000/svg" xmlns:xlink="http://www.w3.org/1999/xlink" viewBox="0 0 1200 1600"><defs><style>.cls-1{fill:none;}.cls-2{clip-path:url(#clip-path);}.cls-3{fill:#044d59;}.cls-4{fill:#fcfcfc;}.cls-5{fill:#429eba;}.cls-6{fill:#d6d6d6;}.cls-7{fill:#9aa4ad;}.cls-8{fill:#2c1622;}.cls-9{fill:#333;}.cls-10{fill:#1b1c1e;}.cls-11{fill:#fbf8fa;}.cls-12{fill:#ddd;}.cls-13{fill:#0f2346;}.cls-14{fill:#424242;}.cls-15{fill:#0f3057;}.cls-16{fill:#e6e7e8;}.cls-17{fill:#00619d;}.cls-18{fill:#0d646d;}.cls-19{fill:#258da5;}</style><clipPath id="clip-path"><rect class="cls-1" x="65" y="17.56" width="1070" height="1564.88"/></clipPath></defs><title>illustracion_carlos</title><g class="cls-2"><path class="cls-3" d="M829.05,1279c0-1.67-45.14-6.69-45.14-6.69l.94-122.46,18.83-2.89,47.1,68.51v55.17Z"/><path class="cls-4" d="M471.27,941.27,478,1098.43,538.14,1274l297.59,16.72s-28.42-7.06-26.75-11.06-15-202.94-15-202.94l-200.63-5Z"/><path class="cls-5" d="M-62.06,1349.21c16.72-10,135.42-98.64,302.61-140.44s220.68-68.54,220.68-68.54l177.22,177.22L814,1309.09s60.19-18.39,55.17-41.8-14.56-65.48-14.56-65.48,16.23-18.11,143.3,72.17,220.68,167.18,220.68,167.18l-23.4,204-1218.8,25.08Z"/><path class="cls-4" d="M446.19,882.76c3.34,0,0-40.13,0-40.13l-5-63.53s5-21.73,5-20.06,23.4,102,23.4,102l37.62,67.71L544,960.5l30.93.84,6.69,56.84,31.77,18.39s43.46-28.42,46.81-26.75,31.76,13.38,36.78,15,30.09-10,30.09-10,6.69,26.75,11.71,26.75,36.78-26.75,38.45-25.08,38.45-31.77,36.78-36.78,23.41-35.11,23.41-35.11l23.4-36.78s5-40.13,5-41.8c0-.48.55-4.92,1.33-11-1-21.37,2-25.57,2-30.78,0-6.69,10-38.45,0-81.92s-15-55.17-11.7-66.87,0-71.9,0-71.9L842.42,493.21l-185.58-41.8s-160.5,31.77-162.17,33.44-75.23,210.66-75.23,210.66S381,734,386,765.73s10,61.86,10,75.23,15.05,56.84,40.13,53.5c5.53-.74,9.84.48,13.21,2.83C446.69,889.47,444.76,882.76,446.19,882.76Z"/><path class="cls-4" d="M865.83,927.9l0-.53c-.09.43-.18.87-.26,1.3Z"/><path class="cls-4" d="M763.84,1125.18l4.53-5.93c-3.06,2.4-6.2,4.63-9.4,6.73Z"/><path class="cls-6" d="M869.17,877.74c-.09-.77-.17-1.5-.26-2.25-.94-8.19-1.49-14.92-1.75-20.47-.78,6.1-1.33,10.54-1.33,11,0,1.62-4.73,39.46-5,41.69a.44.44,0,0,1-.08.2l-23.33,36.66s0,0,0,0c-.66.8-25,30.15-23.39,35.1s-35.11,38.45-36.78,36.78-33.44,25.08-38.45,25.08c-4.58,0-10.54-22.23-11.56-26.16a.51.51,0,0,0-.7-.34c-3.71,1.71-25,11.3-29.54,9.78-5-1.67-33.44-13.38-36.78-15s-43,24.26-46.56,26.58a.49.49,0,0,1-.53,0l-31.27-18.1a.52.52,0,0,1-.25-.39L575,961.78a.51.51,0,0,0-.49-.46l-30.3-.82a.5.5,0,0,1-.33-.12l-36.57-31.59a.38.38,0,0,1-.11-.14l-37.54-67.56a1.12,1.12,0,0,1-.05-.13c-.68-2.91-23.39-100.27-23.39-101.92s-4.68,18.62-5,20a.38.38,0,0,0,0,.15l5,63.45s3.34,40.13,0,40.13c-1.43,0,.5,6.71,3.18,14.53,3.58,10.49,8.52,23,8.52,23.92,0,.33,1.3,4.37,3.38,10.65a.32.32,0,0,1,0,.14c.61,16,6.09,75.86,53.43,124.63,54.68,56.33,104.43,70,105.32,70.22h0c1,.37,70.52,26.63,113.68,11.69A114.22,114.22,0,0,0,759,1126c3.2-2.1,6.34-4.33,9.4-6.73,23.93-18.71,43.84-46.26,58.1-76.08q3.15-6.59,5.92-13.29c3.75-9.05,7.55-18.57,11.23-28.33,9-23.87,17.2-49.22,22-72.88.08-.43.17-.87.26-1.3C869.41,909.34,870.92,892.32,869.17,877.74Z"/><path class="cls-6" d="M757.16,815.88s13.37,3.35,0-16.72-30.1-58.51-33.44-88.61-8.36-21.73,3.34-45.14S743.78,632,748.8,632s-66.88,16.72-78.58,83.59-38.47,85.25-38.47,85.25,11.72,8.38,15.06,8.38,80.25,11.7,80.25,11.7Z"/><path class="cls-7" d="M727.06,837.62c1.62-.42,26.75,11.7,33.44-5s1.67-25.08,1.67-25.08-11.7-10-20.06-6.68c0,0-26.75-20.07-65.2-3.35,0,0-36.78-15-50.16,10s26.75,30.1,26.75,30.1,20.9.83,36-2.51C689.45,835.11,704.49,843.47,727.06,837.62Z"/><path class="cls-8" d="M686.94,829.26s-16.72-11.71-23.41-13.38-23.4-1.67-13.37,5,25.07,3.34,25.07,3.34S678.58,822.57,686.94,829.26Z"/><path class="cls-8" d="M727.06,834.27c0-1.67,11.71-13.37,16.72-13.37s5,3.34,5,5S727.06,834.27,727.06,834.27Z"/><path class="cls-9" d="M564,700.43A18.39,18.39,0,1,0,597.87,697,82.3,82.3,0,0,0,564,700.43Z"/><circle class="cls-10" cx="582.31" cy="708.19" r="4.04"/><circle class="cls-11" cx="584.4" cy="711.39" r="2.23"/><path class="cls-12" d="M542.32,706.38l-5,6.68s-15,8.36-16.71-5-3.35-55.18,38.45-58.52,80.25,21.74,80.25,40.13,3.34,25.07-5,20.06S597.49,679.63,542.32,706.38Z"/><path class="cls-13" d="M549.91,727.22a21.71,21.71,0,0,0,4.11,2.91c.72.42,1.47.79,2.21,1.17s1.5.72,2.28,1a58.84,58.84,0,0,0,9.54,3.13c1.64.42,3.32.64,5,.93s3.37.37,5.06.56,3.39.2,5.09.27h5.11v.17l-5.12.32c-1.71,0-3.42,0-5.13.06s-3.43-.15-5.14-.32-3.43-.34-5.12-.69-3.39-.69-5.08-1.09l-2.48-.81c-.82-.28-1.61-.67-2.41-1s-1.54-.83-2.3-1.24-1.48-.94-2.16-1.49a14,14,0,0,1-3.58-3.79Z"/><path class="cls-13" d="M635.11,710.55s-46.81-36.78-97-5c0,0-1.67,8.36-3.34,10S579.94,675.45,635.11,710.55Z"/><path class="cls-14" d="M793.21,703.77a18.39,18.39,0,1,1-33.92-3.47A82.45,82.45,0,0,1,793.21,703.77Z"/><circle class="cls-10" cx="774.85" cy="711.53" r="4.04"/><circle class="cls-11" cx="777.78" cy="714.73" r="2.23"/><path class="cls-6" d="M814.84,709.72l5,6.69s15,8.36,16.72-5,3.34-55.17-38.46-58.51S717.87,674.61,717.87,693s-3.34,25.08,5,20.06S759.67,683,814.84,709.72Z"/><path class="cls-13" d="M814.07,732.34a14.15,14.15,0,0,1-3.58,3.78c-.68.56-1.43,1-2.16,1.49s-1.52.87-2.31,1.25-1.58.73-2.4,1l-2.48.81c-1.69.39-3.37.83-5.08,1.08s-3.41.49-5.12.7-3.43.21-5.14.32-3.43,0-5.14-.06l-5.11-.33v-.16l5.11,0c1.7-.06,3.4-.18,5.09-.27s3.38-.31,5-.56,3.35-.5,5-.93a57,57,0,0,0,9.54-3.13c.78-.29,1.51-.68,2.28-1s1.49-.75,2.21-1.17a21.71,21.71,0,0,0,4.11-2.91Z"/><path class="cls-13" d="M722.05,713.9s46.81-36.78,97-5c0,0,1.67,8.36,3.34,10S777.22,678.79,722.05,713.9Z"/><path class="cls-15" d="M900.94,678.79C911,652,924.34,565.1,897.59,530S852.45,433,809,426.34s-93.62-40.13-102-43.47c0,0-51.83-18.39-66.87-16.72,0,0-16.72,5-26.75,0S481.3,347.76,476.28,446.4l-5,23.4s-122,78.58-107,162.18S391,713.9,434.48,744c0,0,10,10,11.71,5s-1.67-26.75,16.72-63.53,43.47-68.55,46.81-97-5-60.19,10-66.88,48.48-40.12,80.25-46.81,95.3,1.67,100.31,1.67,80.25,13.38,85.27,16.72,73.56,46.81,55.17,112S824,673.77,773.88,692.16c0,0,57.48-6.51,79.84-41.37,1.49,6.67,3.75,17.92,3.75,24.66,0,10,0,28.42,5,35.1s11.71,83.6,10,90.29,35.11-25.08,36.78-55.18S890.91,705.54,900.94,678.79Z"/><path class="cls-16" d="M680.25,843.3v25.81a.47.47,0,0,1-.24.41l-90.12,50.59a28.42,28.42,0,0,0-8.44,7.22L560.86,953.4a.46.46,0,0,1-.83-.33l3.37-34.86a31.81,31.81,0,0,1,14.51-23.73l52.14-33.43.09,0,49.48-18.15A.47.47,0,0,1,680.25,843.3Z"/><path class="cls-16" d="M690.11,964.78a.75.75,0,0,1,.36-.1c2,0,9.9.06,11.51,1.67s31,13.39,34.72,14.89a.74.74,0,0,1,.46.57l1.53,9.14a.77.77,0,0,1-.33.75c-3.89,2.59-34.81,23.14-36.38,23.14s-36.73-16.08-41.3-18.17a.73.73,0,0,1-.43-.76l1.57-14.14a.74.74,0,0,1,.36-.56Z"/><path class="cls-16" d="M684.43,846.37V868.2a.43.43,0,0,0,.07.25l6.12,9.48c.18.28.54.14.56-.21l1.6-23.67a.49.49,0,0,0-.12-.34l-7.72-7.65C684.74,845.86,684.43,846,684.43,846.37Z"/><path class="cls-16" d="M714.52,849.32v26.57a.69.69,0,0,0,.94.64l7-2.79a.7.7,0,0,0,.43-.64V850.72a.68.68,0,0,0-.55-.67l-7-1.4A.68.68,0,0,0,714.52,849.32Z"/><path class="cls-16" d="M729.57,855.9v20a2.16,2.16,0,0,0,.74,1.63L796,935a2.21,2.21,0,0,1,.65,1c1.06,3.61,6.67,22.33,8.18,17.79s1.66-42,1.68-49a2.15,2.15,0,0,0-1-1.79L733,854.11A2.17,2.17,0,0,0,729.57,855.9Z"/><path class="cls-17" d="M906.19,610.15a179.22,179.22,0,0,1,8.1,19.06c1.21,3.23,2.28,6.52,3.36,9.8s2,6.61,2.94,9.94A193.54,193.54,0,0,1,925,669.22c1.07,6.84,2,13.71,2.53,20.62a180,180,0,0,1,.64,20.78,114.48,114.48,0,0,1-2.37,20.7,65.83,65.83,0,0,1-7.42,19.47,45.86,45.86,0,0,1-6.29,8.31,41.44,41.44,0,0,1-8.1,6.49l-.28-.44A42.33,42.33,0,0,0,917,750a63.86,63.86,0,0,0,6.27-19.19,111.33,111.33,0,0,0,1.55-20.24,175.15,175.15,0,0,0-1.4-20.32c-.83-6.75-2-13.46-3.44-20.11s-2.89-13.3-4.4-19.95c-3-13.31-6.43-26.53-9.88-39.86Z"/><path class="cls-13" d="M631.71,627.29l-3.24,17.77a.32.32,0,0,1-.34.27l-21.4-1.65h-.07c-1.4-.46-50.27-16.64-60.16-11.69-8.59,4.29-30.68,13.49-36.84,16a.32.32,0,0,1-.34-.54l30.42-28.82a.38.38,0,0,1,.17-.08l21.59-3.32h.1l69.84,11.64A.33.33,0,0,1,631.71,627.29Z"/><path class="cls-13" d="M750.42,629l-1.52,12.18a.61.61,0,0,0,.69.68l44.35-6.57s24.31-4.56,39.62,3.71a.6.6,0,0,0,.79-.86c-3-4.35-10.9-14.06-23.69-17.9-15.82-4.74-55.59,7-59.82,8.25A.59.59,0,0,0,750.42,629Z"/><path class="cls-17" d="M486.16,450a88.7,88.7,0,0,0-14.53-2.38,51,51,0,0,0-14,.79,35.62,35.62,0,0,0-12.39,5,33.07,33.07,0,0,0-9.69,9.67l-1.85,3c-.57,1-1.06,2.13-1.6,3.2-.25.54-.55,1.06-.77,1.62l-.66,1.69c-.42,1.13-.9,2.24-1.29,3.39l-1.08,3.49-.55,1.74-.42,1.79-.86,3.58c-.31,1.19-.45,2.42-.69,3.63A188.73,188.73,0,0,0,423.12,520l-.67,0-.47-7.5-.1-1.88,0-1.89,0-3.77c-.08-2.51.05-5,.15-7.55.06-1.26.07-2.53.18-3.78l.35-3.79c.15-1.25.2-2.52.44-3.78l.61-3.77.31-1.88.43-1.87.87-3.75c.33-1.24.77-2.46,1.16-3.69l.59-1.85c.21-.61.49-1.21.73-1.81.51-1.2,1-2.42,1.54-3.6l1.84-3.49a42.33,42.33,0,0,1,10.43-12.27,30.81,30.81,0,0,1,15.11-6.19A40.88,40.88,0,0,1,472.42,443a46.28,46.28,0,0,1,7.34,2.59,38.25,38.25,0,0,1,6.7,3.82Z"/><path class="cls-17" d="M482.06,467.45a89.57,89.57,0,0,0-9.16-2.81,87.56,87.56,0,0,0-9.32-1.93,74.1,74.1,0,0,0-18.79-.69,41.7,41.7,0,0,0-4.62.62l-2.29.43c-.76.16-1.49.4-2.24.6s-1.5.38-2.24.61l-2.18.78a22.47,22.47,0,0,0-2.16.84l-2.09,1a44.11,44.11,0,0,0-14.5,11.45L411,480.14l-1.33,1.94L408.29,484c-.22.33-.46.64-.65,1l-.57,1-2.28,4.14-1.91,4.34c-.3.73-.66,1.44-.92,2.19l-.78,2.25c-.5,1.5-1,3-1.53,4.51l-1.2,4.62c-.4,1.54-.84,3.07-1.09,4.65a194.76,194.76,0,0,0-3.67,38.15h-.33a195.47,195.47,0,0,1,2.36-38.48c.22-1.6.62-3.17,1-4.74l1.1-4.73c.46-1.55,1-3.09,1.45-4.64L400,496c.24-.78.59-1.51.89-2.27l1.84-4.52,2.25-4.35.57-1.09c.19-.36.43-.69.65-1l1.33-2.06,1.34-2.07,1.55-1.92A47,47,0,0,1,425.47,464l2.23-1.12a24.19,24.19,0,0,1,2.3-.95l2.34-.89c.79-.25,1.59-.46,2.39-.68s1.6-.45,2.42-.6l2.44-.43c1.63-.34,3.28-.42,4.92-.6A66.07,66.07,0,0,1,464,460.42a73.91,73.91,0,0,1,18.19,6.73Z"/><path class="cls-17" d="M475.45,474.32c-7.59,2.28-14.87,4.55-21.87,7.32-3.49,1.37-6.94,2.78-10.36,4.26a56.26,56.26,0,0,0-9.8,5.39A50.77,50.77,0,0,0,425,498.6c-.68.65-1.27,1.38-1.88,2.09s-1.24,1.41-1.77,2.19l-1.66,2.29-1.49,2.41a60.87,60.87,0,0,0-7.58,21.61l-.67-.06.19-3c.07-1,.1-2,.26-2.95a56,56,0,0,1,1-5.85A54.92,54.92,0,0,1,415.21,506l1.34-2.71,1.55-2.61a28.6,28.6,0,0,1,1.68-2.54c.58-.84,1.15-1.68,1.81-2.46a55.89,55.89,0,0,1,8.6-8.66,77.78,77.78,0,0,1,10-7,50,50,0,0,1,11.24-4.7,62.39,62.39,0,0,1,11.92-2.14,46.45,46.45,0,0,1,12.06.49Z"/><path class="cls-17" d="M690.31,383.39a143.54,143.54,0,0,1,17.36.25c5.77.37,11.52,1,17.24,1.89a143.4,143.4,0,0,1,17,3.61c1.4.37,2.79.79,4.19,1.21s2.78.81,4.16,1.28l4.16,1.35,4.16,1.53c11,4.31,21,10.18,30.61,16.58q7.2,4.82,14.07,10c4.6,3.47,9.1,7.05,13.45,10.81l-.39.49a332.14,332.14,0,0,0-28.78-18.68q-7.38-4.33-15.06-8l-3.84-1.84-3.88-1.67c-1.29-.59-2.61-1.08-3.92-1.56l-2-.74c-.66-.26-1.32-.49-2-.68l-4-1.23c-1.35-.37-2.74-.68-4.11-1s-2.77-.63-4.15-.93-2.77-.61-4.16-.87c-5.56-1.15-11.13-2.25-16.69-3.48L707,388c-5.59-1.25-11.18-2.52-16.79-4Z"/><path class="cls-18" d="M461.23,1133.54c1.68-1.67,10-45.14,10-45.14s6.68-5,8.36,0,0,81.92,138.76,155.48,212.33,13.38,212.33,13.38,38.45-28.42-33.44-112l3.48-2.09,43.33,47.23,15,75.24-73.56,51.83-165.52-30.1L493,1172Z"/><path class="cls-19" d="M888.4,1263.11s1.67-50.16-90.28-122c0,0,104,103.66,20.06,135.42-99.48,37.62-215.67-33.43-215.67-33.43s-35.64-18.83-65.13-44.55c-1.57-1.52-3.31-3.08-5.21-4.7l-.17-.15a196.08,196.08,0,0,1-33.88-36.47c-26.32-37.17-26-68-26-68-48.48,93.63,0,152.15,0,152.15s123.72,150.46,274.19,142.1S888.4,1263.11,888.4,1263.11Z"/><polygon class="cls-4" points="783.91 1148.59 798.12 1127.26 801.75 1172.43 783.91 1148.59"/><path class="cls-6" d="M653.5,1140.23s53.5,23.4,90.28,3.34,48.49-40.12,48.49-40.12l10,163.84-8.36-65.2s-30.1,68.54-140.44,30.09c0,0,55.17,5,88.61-38.45S705.33,1228.84,653.5,1140.23Z"/><path class="cls-16" d="M419.44,777.43c19.33,8.06,13.82,51.82,10.4,64-1.94-1.49-6.38-3.77-15.42-3.77,0,0,9.33,3.33,13.12,8.1a6.5,6.5,0,0,1,1.58,3.64h0v0c3.18-3.65,6.26-12.08,8.69-28.44C444.52,775.76,419.44,777.43,419.44,777.43Z"/><path class="cls-16" d="M538.1,581.75A99.76,99.76,0,0,1,550.55,576c1.06-.41,2.12-.85,3.2-1.24l3.24-1.14c2.15-.8,4.36-1.41,6.54-2.11a221.07,221.07,0,0,1,26.8-6.09l6.8-1c1.13-.19,2.27-.33,3.41-.44l3.42-.37,3.42-.35c1.14-.13,2.29-.24,3.43-.29l6.87-.35c2.29-.12,4.59-.1,6.88-.09s4.58,0,6.87,0c4.58.16,9.15.48,13.71.83v.16c-2.29.07-4.58.08-6.86.12s-4.57,0-6.85,0-4.56.16-6.84.24-4.56.12-6.83.32c-4.55.29-9.1.5-13.64,1l-3.4.29c-1.14.08-2.28.19-3.4.35l-6.79.86a220.43,220.43,0,0,0-26.77,5.56c-2.19.64-4.4,1.2-6.56,1.94L554,575.27c-1.09.37-2.15.77-3.22,1.16a100.43,100.43,0,0,0-12.55,5.46Z"/><path class="cls-16" d="M803.09,566a86.72,86.72,0,0,0-11.53-4.3c-3.91-1.23-7.9-2.22-11.9-3.14a216.74,216.74,0,0,0-24.29-4l-6.12-.58c-2-.16-4.1-.25-6.14-.38s-4.1-.28-6.15-.32l-6.14-.26c-4.1-.22-8.21-.18-12.31-.33-2.06,0-4.11,0-6.17,0s-4.11,0-6.17-.08v-.17q6.15-.56,12.33-.9c2.06-.08,4.12-.09,6.18-.13s4.13-.11,6.19,0c4.12.14,8.25.18,12.36.6,2,.18,4.11.33,6.16.54l6.15.74a219.88,219.88,0,0,1,24.32,4.46c4,1,8,2.14,11.87,3.48a89.3,89.3,0,0,1,11.45,4.63Z"/><path class="cls-16" d="M823.12,597.73a17.16,17.16,0,0,0-3.43-4.61,20.59,20.59,0,0,0-2.13-1.94l-1.13-.91a10.79,10.79,0,0,0-1.16-.85l-2.43-1.57c-.81-.51-1.69-.91-2.54-1.37a43.58,43.58,0,0,0-5.26-2.37,97.41,97.41,0,0,0-22.43-5.42c-1.91-.22-3.84-.35-5.76-.53s-3.84-.4-5.78-.39l-5.79-.19-2.89-.13c-1,0-1.93,0-2.89,0l-5.8,0c-1.94,0-3.87,0-5.81.05-3.86.12-7.74.23-11.62.24l0-.16c3.85-.49,7.72-.88,11.59-1.25,1.93-.24,3.88-.24,5.82-.32l5.84-.2c1,0,1.94-.06,2.92,0l2.92.1,5.83.27c2,0,3.88.37,5.82.56s3.87.42,5.8.69a98.32,98.32,0,0,1,22.56,6,44.86,44.86,0,0,1,5.27,2.55c.84.49,1.72.92,2.53,1.46l2.41,1.67a9.92,9.92,0,0,1,1.16.89l1.11,1a20.14,20.14,0,0,1,2.1,2,17.08,17.08,0,0,1,3.34,4.78Z"/><path class="cls-16" d="M562.38,549.14a66.17,66.17,0,0,0,16.62-3c2.7-.81,5.38-1.7,8-2.72l7.89-3.15c5.29-2.06,10.63-4,16.09-5.59a162.19,162.19,0,0,1,16.58-3.9l0,.16c-5.37,1.87-10.77,3.53-16.13,5.34s-10.79,3.36-16.12,5.25l-8,2.92c-2.68.94-5.41,1.76-8.16,2.5a66.21,66.21,0,0,1-16.84,2.38Z"/><path class="cls-17" d="M610.85,927.51s15.9,5.4,22.59,10.42S658.52,953,675.23,951.3s45.15,0,45.15,0,23.4,0,50.15-13.37l2.05-2-27.13-11.33-51.82-5H643.47Z"/><path class="cls-13" d="M773.88,936.26c-5-1.67-13.38-1.67-20.07-5s-21.73-6.69-41.79-5-23.41,1.67-33.44,0-51.83-3.35-55.17-1.68-15,3.35-15,3.35,48.48-25.08,51.83-26.75,21.73-8.36,25.08-5,11.7,6.69,15,3.35,16.72-6.69,28.42,3.34S773.88,936.26,773.88,936.26Z"/></g></svg>